<svg width="568" height="235" viewBox="0 0 568 235" fill="none" xmlns="http://www.w3.org/2000/svg">
<g clip-path="url(#clip0_10_106)">
<path d="M433.685 89.6636C433.566 80.1738 438.987 71.4318 447.626 66.8307C455.431 62.4022 467.467 62.7473 475.033 67.5784C478.549 69.5914 482.064 72.9271 484.03 76.3779C486.413 80.3464 487.545 84.7749 487.664 89.6636H433.685ZM505.658 61.9421C488.916 44.8606 462.939 38.8792 439.881 46.701C423.139 51.9347 407.41 67.2333 402.167 83.3946C394.719 104.214 400.558 127.335 416.228 142.748C428.68 154.769 443.933 160.635 461.568 160.635C485.519 160.635 508.994 145.509 517.752 123.942H482.958C480.157 128.313 475.51 132.166 470.744 134.006C460.913 137.975 448.699 135.674 441.43 127.795C437.021 123.079 434.578 117.328 434.817 110.944H521.565C523.293 100.994 521.863 90.2962 518.467 81.4391C515.488 74.4225 511.318 67.8084 505.658 61.9421Z" fill="white"/>
<path d="M212.76 61.942H149.188V0.17254H117.67V155.229H148.89V89.7785H212.462V155.114H244.039V0H212.76V61.942Z" fill="white"/>
<path d="M567.143 0.459991H538.962V155.976H567.143V0.459991Z" fill="white"/>
<path d="M293.789 89.6635C293.67 80.1738 299.092 71.4317 307.731 66.8306C315.536 62.4021 327.571 62.7472 335.138 67.5783C338.653 69.5913 342.169 72.9271 344.135 76.3779C346.518 80.3463 347.65 84.7748 347.769 89.6635H293.789ZM365.822 61.942C349.08 44.918 323.103 38.8791 300.045 46.7584C283.303 51.9922 267.574 67.2907 262.331 83.452C254.884 104.272 260.722 127.392 276.392 142.806C288.844 154.826 304.097 160.693 321.733 160.693C345.684 160.693 369.158 145.567 377.917 123.999H343.122C340.322 128.37 335.674 132.223 330.908 134.064C321.077 138.032 308.863 135.732 301.594 127.852C297.186 123.136 294.743 117.385 294.981 111.001H381.73C383.458 101.051 382.028 90.3536 378.632 81.4966C375.653 74.4224 371.422 67.8084 365.822 61.942Z" fill="white"/>
<path d="M0 89.836L77.3946 89.8936L88.0594 61.8845H10.5457L0 89.836Z" fill="white"/>
<path d="M552.725 215.33C553.023 212.857 554.453 210.039 558.027 210.039C561.185 210.039 562.913 212.455 562.913 215.33H552.725ZM565.296 222.404C564.402 223.095 561.602 224.302 559.219 224.302C555.763 224.302 552.725 221.714 552.725 217.976H566.786C566.786 211.822 564.641 207.221 558.087 207.221C552.546 207.221 548.852 211.189 548.852 216.883C548.852 223.095 552.069 227.178 559.04 227.178C562.258 227.178 563.866 226.43 565.296 225.97V222.404ZM534.553 226.718H538.187V218.033C538.187 213.26 540.332 210.269 543.549 210.269C544.145 210.269 544.92 210.327 545.575 210.614V207.451C544.801 207.278 544.264 207.163 543.192 207.163C541.107 207.163 539.021 208.601 538.068 210.557H538.009V207.624H534.612V226.718H534.553ZM527.761 207.681H524.126V216.481C524.126 221.139 522.279 224.302 518.109 224.302C514.951 224.13 513.938 221.944 513.938 217.516V207.681H510.304V219.011C510.304 224.13 512.568 227.178 517.692 227.178C520.432 227.178 523.054 225.855 524.186 223.727H524.245V226.776H527.761V207.681ZM505.18 207.681H499.937V202.16L496.302 203.253V207.681H491.834V210.499H496.302V221.657C496.302 225.453 498.626 227.178 502.38 227.178C503.571 227.178 504.644 226.891 505.478 226.66V223.67C504.941 223.957 504.107 224.302 502.975 224.302C501.307 224.302 499.937 223.095 499.937 220.909V210.499H505.18V207.681ZM484.267 219.299C484.267 222.117 482.361 224.302 478.786 224.302C477.118 224.302 475.092 223.21 475.092 221.197C475.092 217.861 479.977 217.516 481.944 217.516C482.718 217.516 483.493 217.573 484.267 217.573V219.299ZM473.662 211.995C475.151 210.787 477.356 210.039 479.382 210.039C483.016 210.039 484.267 211.707 484.267 214.985C482.837 214.928 481.824 214.928 480.395 214.928C476.641 214.928 471.219 216.423 471.219 221.197C471.219 225.338 474.198 227.121 478.428 227.121C481.765 227.121 483.671 225.338 484.565 224.187H484.625V226.66H488.021C487.961 226.085 487.842 225.108 487.842 222.922V215.1C487.842 209.924 485.578 207.221 479.918 207.221C477.416 207.221 475.211 207.969 473.424 209.004L473.662 211.995ZM448.34 226.718H451.975V217.918C451.975 213.26 453.822 210.097 457.992 210.097C461.15 210.269 462.163 212.455 462.163 216.883V226.718H465.797V215.388C465.797 210.269 463.533 207.221 458.409 207.221C455.669 207.221 453.047 208.544 451.975 210.672H451.915V207.624H448.4V226.718H448.34ZM415.333 234.77C415.988 234.885 416.644 235 417.835 235C422.661 235 424.091 230.801 425.402 227.121L432.671 207.681H428.977L423.555 223.44H423.495L418.193 207.681H414.201L420.874 225.453C421.112 226.085 421.589 227.063 421.589 227.466C421.589 227.868 420.516 232.182 417.24 232.182C416.644 232.182 415.988 232.009 415.512 231.894L415.333 234.77ZM407.707 217.113C407.766 220.104 406.158 224.302 402.225 224.302C398.114 224.302 396.446 220.392 396.446 217.228C396.446 213.662 398.353 210.039 402.285 210.039C406.277 210.039 407.826 213.662 407.707 217.113ZM392.812 226.718H396.327V224.015H396.387C397.34 225.453 399.604 227.178 403.119 227.178C409.077 227.178 411.579 222.117 411.579 216.883C411.579 211.765 408.779 207.221 403.06 207.221C399.604 207.221 397.638 208.544 396.506 210.269H396.446V198.709H392.812V226.718ZM359.804 217.113C359.745 213.662 361.294 210.039 365.226 210.039C369.158 210.039 371.065 213.662 371.065 217.228C371.065 220.392 369.337 224.302 365.286 224.302C361.353 224.302 359.745 220.104 359.804 217.113ZM371.244 226.718H374.759V198.709H371.125V210.269H371.065C369.933 208.486 367.967 207.221 364.511 207.221C358.791 207.221 355.991 211.765 355.991 216.883C355.991 222.059 358.494 227.178 364.452 227.178C367.967 227.178 370.231 225.453 371.184 224.015H371.244V226.718ZM337.7 215.33C337.998 212.857 339.428 210.039 343.003 210.039C346.16 210.039 347.948 212.455 347.948 215.33H337.7ZM350.271 222.404C349.378 223.095 346.578 224.302 344.194 224.302C340.739 224.302 337.7 221.714 337.7 217.976H351.761C351.761 211.822 349.616 207.221 343.062 207.221C337.521 207.221 333.827 211.189 333.827 216.883C333.827 223.095 337.045 227.178 344.075 227.178C347.352 227.178 348.901 226.43 350.331 225.97V222.404H350.271ZM310.889 226.718H314.523V217.918C314.523 213.26 316.37 210.097 320.541 210.097C323.699 210.269 324.712 212.455 324.712 216.883V226.718H328.346V215.388C328.346 210.269 326.082 207.221 320.958 207.221C318.217 207.221 315.596 208.544 314.464 210.672H314.404V207.624H310.889V226.718ZM294.743 223.842C291.347 223.842 289.261 220.737 289.261 217.113C289.261 213.835 291.108 209.982 294.743 209.982C298.616 209.982 300.522 213.375 300.522 217.343C300.522 220.967 298.139 223.842 294.743 223.842ZM304.156 207.681H300.76V210.499H300.701C299.628 208.429 297.662 207.221 294.207 207.221C288.249 207.221 285.389 212.455 285.389 217.343C285.389 222.289 288.189 226.718 293.849 226.718C296.351 226.718 298.913 225.74 300.462 223.785H300.522V225.625C300.522 229.651 298.258 232.182 294.385 232.182C291.704 232.182 290.036 231.722 287.236 230.456L286.819 233.735C289.976 234.77 291.823 235.057 293.909 235.057C300.999 235.057 304.097 231.722 304.097 225.97V207.681H304.156ZM279.669 199.457H275.558V203.425H279.669V199.457ZM275.796 226.718H279.431V207.681H275.796V226.718ZM258.041 226.085C259.71 226.948 261.616 227.121 263.463 227.121C266.978 227.121 270.375 225.28 270.375 221.197C270.375 215.1 261.795 216.251 261.795 212.34C261.795 210.787 263.404 210.039 265.31 210.039C266.144 210.039 268.349 210.499 269.123 211.017L269.421 207.969C267.991 207.566 266.621 207.221 264.893 207.221C260.961 207.221 257.922 209.119 257.922 213.087C257.922 218.436 266.502 218.148 266.502 221.599C266.502 223.67 264.476 224.302 262.808 224.302C261.735 224.302 259.71 223.842 258.28 222.98L258.041 226.085ZM240.167 215.33C240.465 212.857 241.895 210.039 245.47 210.039C248.628 210.039 250.415 212.455 250.415 215.33H240.167ZM252.739 222.404C251.845 223.095 249.045 224.302 246.662 224.302C243.206 224.302 240.167 221.714 240.167 217.976H254.228C254.228 211.822 252.083 207.221 245.53 207.221C239.929 207.221 236.295 211.189 236.295 216.883C236.295 223.095 239.512 227.178 246.483 227.178C249.76 227.178 251.309 226.43 252.739 225.97V222.404ZM215.918 217.113C215.859 213.662 217.408 210.039 221.34 210.039C225.272 210.039 227.179 213.662 227.179 217.228C227.179 220.392 225.451 224.302 221.4 224.302C217.467 224.302 215.859 220.104 215.918 217.113ZM227.358 226.718H230.873V198.709H227.238V210.269H227.179C226.047 208.486 224.081 207.221 220.625 207.221C214.905 207.221 212.105 211.765 212.105 216.883C212.105 222.059 214.608 227.178 220.566 227.178C224.081 227.178 226.345 225.453 227.298 224.015H227.358V226.718ZM182.494 215.33C182.792 212.857 184.222 210.039 187.796 210.039C190.954 210.039 192.742 212.455 192.742 215.33H182.494ZM195.065 222.404C194.172 223.095 191.371 224.302 188.988 224.302C185.532 224.302 182.494 221.714 182.494 217.976H196.555C196.555 211.822 194.41 207.221 187.856 207.221C182.315 207.221 178.621 211.189 178.621 216.883C178.621 223.095 181.838 227.178 188.869 227.178C192.146 227.178 193.695 226.43 195.125 225.97V222.404H195.065ZM164.322 226.718H167.956V218.033C167.956 213.26 170.101 210.269 173.318 210.269C173.914 210.269 174.689 210.327 175.344 210.614V207.451C174.57 207.278 174.033 207.163 172.961 207.163C170.876 207.163 168.79 208.601 167.837 210.557H167.778V207.624H164.381V226.718H164.322ZM153.895 219.299C153.895 222.117 151.989 224.302 148.414 224.302C146.746 224.302 144.72 223.21 144.72 221.197C144.72 217.861 149.606 217.516 151.572 217.516C152.346 217.516 153.121 217.573 153.895 217.573V219.299ZM143.29 211.995C144.78 210.787 146.984 210.039 149.01 210.039C152.644 210.039 153.895 211.707 153.895 214.985C152.465 214.928 151.453 214.928 150.023 214.928C146.269 214.928 140.847 216.423 140.847 221.197C140.847 225.338 143.826 227.121 148.056 227.121C151.393 227.121 153.3 225.338 154.193 224.187H154.253V226.66H157.649C157.589 226.085 157.47 225.108 157.47 222.922V215.1C157.47 209.924 155.206 207.221 149.546 207.221C147.044 207.221 144.839 207.969 143.052 209.004L143.29 211.995ZM137.272 207.969C136.26 207.566 134.353 207.221 132.864 207.221C126.846 207.221 122.795 211.419 122.795 217.171C122.795 222.635 126.906 227.178 132.864 227.178C134.174 227.178 135.902 227.063 137.451 226.373L137.213 223.21C136.021 223.957 134.472 224.302 133.281 224.302C128.574 224.302 126.667 220.564 126.667 217.171C126.667 213.547 128.931 210.039 133.042 210.039C134.234 210.039 135.604 210.327 136.975 210.844L137.272 207.969ZM100.214 226.718H103.848V217.918C103.848 213.26 105.695 210.097 109.866 210.097C113.023 210.269 114.036 212.455 114.036 216.883V226.718H117.671V215.388C117.671 210.269 115.407 207.221 110.283 207.221C107.542 207.221 105.218 208.371 103.908 210.384H103.848V198.709H100.214V226.718ZM95.0302 207.681H89.7871V202.16L86.1527 203.253V207.681H81.6842V210.499H86.1527V221.657C86.1527 225.453 88.4763 227.178 92.2299 227.178C93.4215 227.178 94.4939 226.891 95.3281 226.66V223.67C94.7918 223.957 94.0173 224.302 92.8853 224.302C91.217 224.302 89.8467 223.095 89.8467 220.909V210.499H95.0897V207.681H95.0302ZM73.7005 226.718H77.3349V198.709H73.7005V226.718ZM62.8569 219.299C62.8569 222.117 60.9503 224.302 57.3755 224.302C55.7073 224.302 53.6815 223.21 53.6815 221.197C53.6815 217.861 58.5671 217.516 60.5333 217.516C61.3078 217.516 62.0823 217.573 62.8569 217.573V219.299ZM52.2516 211.995C53.7411 210.787 55.9456 210.039 57.9713 210.039C61.6057 210.039 62.8569 211.707 62.8569 214.985C61.427 214.928 60.4141 214.928 58.9842 214.928C55.2306 214.928 49.8088 216.423 49.8088 221.197C49.8088 225.338 52.7878 227.121 57.018 227.121C60.3545 227.121 62.2611 225.338 63.1548 224.187H63.2144V226.66H66.6104C66.5508 226.085 66.4317 225.108 66.4317 222.922V215.1C66.4317 209.924 64.1676 207.221 58.5075 207.221C56.0052 207.221 53.8007 207.969 52.0133 209.004L52.2516 211.995ZM31.5773 215.33C31.8156 212.857 33.3051 210.039 36.8799 210.039C40.0377 210.039 41.7655 212.455 41.7655 215.33H31.5773ZM44.1487 222.404C43.255 223.095 40.4547 224.302 38.0715 224.302C34.6159 224.302 31.5773 221.714 31.5773 217.976H45.6382C45.6382 211.822 43.4933 207.221 36.9395 207.221C31.339 207.221 27.7046 211.189 27.7046 216.883C27.7046 223.095 30.9219 227.178 37.9524 227.178C41.2293 227.178 42.7784 226.43 44.2083 225.97V222.404H44.1487ZM1.0127 226.718H4.8854V214.813H17.8143V226.718H21.687V200.664H17.8143V211.592H4.8854V200.664H1.0127V226.718Z" fill="white"/>
</g>
<defs>
<clipPath id="clip0_10_106">
<rect width="567.143" height="235" fill="white"/>
</clipPath>
</defs>
</svg>
