<svg width="869" height="142" viewBox="0 0 869 142" fill="none" xmlns="http://www.w3.org/2000/svg">
<g clip-path="url(#clip0_10_116)">
<path d="M86.9176 63.5194L86.5647 64.4306C92.4769 67.0172 105.654 77.2755 105.654 97.9391C105.654 117.398 89.2413 137.003 63.4455 137.003C31.3551 137.003 20.2955 118.25 20.2955 101.025C20.2955 78.9509 35.7377 64.2542 35.7377 44.149C35.7377 30.1577 25.1488 16.3428 10.9713 13.8149L10.4125 14.7261C16.3246 21.0164 18.3248 27.1008 18.3248 33.5674C18.3248 55.2598 0 70.6914 0 95.6464C0 118.603 16.0599 142 62.5631 142C104.007 142 125.861 121.718 125.861 100.144C125.861 81.6551 112.566 65.9884 86.9176 63.5194Z" fill="white"/>
<path d="M268.989 138.326L213.897 67.3111V131.301L225.133 133.976V137.003H199.514V133.976L208.691 131.301V61.6088C207.779 60.7564 204.337 57.9052 200.778 57.141C199.661 56.9058 198.161 56.6413 198.161 56.6413V53.6431H219.897L267.077 114.782V59.3455L255.841 56.6413V53.6431H281.46V56.6413L272.283 59.3455C272.283 59.3455 272.283 115.458 272.283 122.806C272.283 128.597 272.695 137.238 272.783 138.326H268.989ZM384.173 93.1186C384.173 122.63 363.701 139.56 341.082 139.56C318.228 139.56 297.991 122.248 297.991 95.3525C297.991 68.2223 318.463 51.0271 340.964 51.0271C368.584 51.0565 384.173 72.5432 384.173 93.1186ZM369.849 97.5276C369.849 75.9234 356.907 54.9659 339.317 54.9659C320.61 54.9659 312.168 73.0429 312.168 92.3838C312.168 111.578 322.845 135.71 342.935 135.71C361.789 135.68 369.849 116.604 369.849 97.5276ZM401.968 59.3455L393.203 56.6413V53.6431H427V56.6413L416.411 59.3455L439.736 122.894H439.853L463.179 59.3455L452.59 56.6413V53.6431H477.591V56.6413L468.885 59.3455L439.295 138.502H431.823L401.968 59.3455ZM601.658 94.4413H596.305V58.0228C614.1 58.0228 624.454 62.0791 624.454 76.4819C624.454 87.1811 615.189 94.4413 601.658 94.4413ZM752.904 133.976L764.581 131.301V59.3455L752.904 56.6413V53.6431H789.583V56.6413L777.906 59.3455V131.301L789.612 133.976V137.003H752.933V133.976H752.904ZM812.026 114.047H814.349L822.144 131.977C824.468 133.153 830.321 135.68 837.057 135.68C847.175 135.68 856.411 129.655 856.411 119.279C856.411 111.284 851.234 106.522 842.851 102.142C840.175 100.761 837.38 99.2913 834.557 97.851C824.644 92.7071 814.732 85.4175 814.732 73.6895C814.732 60.9327 823.703 51.0859 842.439 51.0859C852.087 51.0859 860.352 53.7607 861.97 54.2898L863.941 73.5719H861.441L854.234 58.111C852.881 57.4349 848.557 54.9659 842.145 54.9659C832.586 54.9659 826.085 60.8445 826.085 68.9865C826.085 76.3643 830.998 81.0085 839.41 85.3587C842.528 86.9754 845.969 88.7684 849.234 90.4732C862.647 97.4101 869 103.847 869 115.752C869 130.448 855.205 139.59 838.057 139.59C824.938 139.59 816.908 136.886 814.261 136.033L812.026 114.047ZM472.003 133.976L481.444 131.301L510.593 53.6137L520.329 51.1153L550.42 131.271L559.862 133.976V137.003H524.153V133.976L536.242 131.271L527.712 108.227H495.651L487.18 131.271L499.269 133.946V136.974H472.003V133.976ZM497.828 102.113H525.565L511.799 64.9302H511.682L497.828 102.113ZM618.454 96.2343C621.336 95.4995 637.896 91.2962 637.896 75.5413C637.896 62.9903 628.278 53.261 604.57 53.261C589.922 53.261 575.098 53.5844 573.304 53.6431V56.6413L582.981 59.3455V131.271L573.304 133.976V136.974H607.541V133.976L596.305 131.271V98.7622H605.982L630.719 136.974H652.633V134.093L641.544 131.271L618.454 96.2343ZM690.753 58.0228V131.301L679.075 133.976V137.003H715.754V133.976L704.077 131.301V58.0228H723.873L730.373 71.9259H732.903L731.02 53.6137H663.839L661.957 71.9259H664.486L670.957 58.0228H690.753ZM63.0926 111.078L74.7699 0H50.3564L62.0337 111.078H63.0926Z" fill="white"/>
</g>
<defs>
<clipPath id="clip0_10_116">
<rect width="869" height="142" fill="white"/>
</clipPath>
</defs>
</svg>
