<svg width="994" height="117" viewBox="0 0 994 117" fill="none" xmlns="http://www.w3.org/2000/svg">
<g clip-path="url(#clip0_10_156)">
<g clip-path="url(#clip1_10_156)">
<g clip-path="url(#clip2_10_156)">
<path d="M891.709 113.965H885.899V80.2181H891.636V85.0078H891.709C892.844 83.2459 894.409 81.8036 896.258 80.8181C898.107 79.8326 900.177 79.3365 902.271 79.3772C903.766 79.2103 905.28 79.3766 906.703 79.864C908.126 80.3514 909.424 81.1479 910.504 82.1963C911.583 83.2447 912.417 84.5192 912.946 85.9282C913.475 87.3372 913.686 88.8458 913.564 90.3459V113.929H907.789V91.0772C907.834 90.1292 907.671 89.1829 907.311 88.3046C906.952 87.4263 906.405 86.6373 905.709 85.9928C905.012 85.3484 904.183 84.8641 903.28 84.574C902.377 84.2838 901.421 84.1948 900.48 84.3131C899.294 84.2912 898.116 84.5143 897.021 84.9684C895.925 85.4225 894.934 86.0978 894.111 86.9523C893.288 87.8067 892.65 88.8218 892.236 89.9342C891.823 91.0466 891.644 92.2323 891.709 93.4172V113.965ZM872.56 97.11C872.56 89.7975 868.905 84.0206 862.181 84.0206C855.456 84.0206 851.509 89.7975 851.509 97.11C851.509 104.423 855.164 110.126 861.888 110.126C868.613 110.126 872.377 104.423 872.377 97.11H872.56ZM845.845 97.11C845.845 87.3113 852.131 79.3772 862.217 79.3772C872.304 79.3772 878.48 87.3113 878.48 97.11C878.48 106.909 872.304 114.952 862.217 114.952C852.131 114.952 845.662 106.982 845.662 97.11H845.845ZM832.652 80.2181H838.426V113.965H832.652V80.2181ZM839.047 70.7119C839.047 71.435 838.833 72.1419 838.431 72.7432C838.03 73.3444 837.459 73.8131 836.791 74.0898C836.123 74.3665 835.389 74.4389 834.68 74.2979C833.971 74.1568 833.32 73.8086 832.809 73.2972C832.298 72.7859 831.949 72.1344 831.808 71.4252C831.667 70.7159 831.74 69.9808 832.016 69.3127C832.293 68.6446 832.761 68.0736 833.362 67.6718C833.963 67.2701 834.67 67.0556 835.393 67.0556C835.866 67.0496 836.335 67.1415 836.771 67.3256C837.208 67.5096 837.601 67.7818 837.927 68.1251C838.253 68.4684 838.504 68.8753 838.666 69.3205C838.827 69.7656 838.895 70.2393 838.865 70.7119H839.047ZM796.764 103.618H802.611C803.306 108.518 807.07 110.163 811.857 110.163C816.645 110.163 819.386 107.823 819.386 104.825C819.386 101.168 816.572 100.181 810.651 98.9747C804.11 97.5488 798.189 96.1959 798.189 88.7737C798.189 83.0334 802.648 79.3406 810.469 79.3406C818.874 79.3406 823.04 83.3259 823.771 89.1759H817.997C817.485 85.5197 815.146 83.7647 810.359 83.7647C805.572 83.7647 803.854 85.9219 803.854 88.4813C803.854 92.1375 807.107 92.6859 812.771 93.8194C819.459 95.1356 825.196 96.6713 825.196 104.496C825.196 111.369 819.569 114.879 811.748 114.879C802.283 114.989 797.057 110.565 796.691 103.728L796.764 103.618ZM783.864 80.1084H789.382V113.856H783.608L783.864 80.1084ZM790.259 70.6022C790.259 71.3253 790.045 72.0322 789.643 72.6335C789.242 73.2348 788.671 73.7034 788.003 73.9801C787.335 74.2569 786.601 74.3293 785.892 74.1882C785.183 74.0471 784.531 73.6989 784.02 73.1875C783.509 72.6762 783.161 72.0247 783.02 71.3155C782.879 70.6062 782.952 69.8711 783.228 69.203C783.505 68.5349 783.973 67.9639 784.574 67.5621C785.175 67.1604 785.882 66.9459 786.604 66.9459C787.086 66.9442 787.563 67.0428 788.004 67.2353C788.446 67.4279 788.842 67.7102 789.169 68.0644C789.495 68.4186 789.745 68.8369 789.901 69.2927C790.057 69.7484 790.117 70.2318 790.076 70.7119L790.259 70.6022ZM748.195 80.1084H754.371L760.255 98.3897C761.681 102.887 763.288 109.139 763.288 109.139C763.288 109.139 764.714 102.887 766.249 98.3897L772.242 80.1084H778.199L766.212 113.856H759.78L748.195 80.1084ZM736.866 80.1084H742.677V113.856H736.866V80.1084ZM743.298 70.6022C743.42 71.1376 743.42 71.6937 743.298 72.2291C743.175 72.7645 742.934 73.2654 742.592 73.6947C742.25 74.124 741.815 74.4707 741.32 74.7089C740.826 74.9472 740.284 75.0709 739.735 75.0709C739.186 75.0709 738.644 74.9472 738.15 74.7089C737.655 74.4707 737.22 74.124 736.878 73.6947C736.536 73.2654 736.295 72.7645 736.172 72.2291C736.05 71.6937 736.05 71.1376 736.172 70.6022C736.05 70.0667 736.05 69.5107 736.172 68.9753C736.295 68.4399 736.536 67.939 736.878 67.5097C737.22 67.0803 737.655 66.7337 738.15 66.4955C738.644 66.2572 739.186 66.1335 739.735 66.1335C740.284 66.1335 740.826 66.2572 741.32 66.4955C741.815 66.7337 742.25 67.0803 742.592 67.5097C742.934 67.939 743.175 68.4399 743.298 68.9753C743.42 69.5107 743.42 70.0667 743.298 70.6022ZM707.301 108.225C717.753 108.225 721.919 101.388 721.919 90.6384C721.919 79.8891 718.265 72.6497 707.52 72.6497H697.141V108.225H707.301ZM690.709 67.2019H707.886C721.7 67.2019 728.57 76.7447 728.57 90.7847C728.57 104.825 721.261 113.965 707.447 113.965H690.709V67.2019ZM965.677 40.8403H971.561C972.109 45.7397 975.764 47.5312 980.698 47.5312C985.631 47.5312 988.226 45.1913 988.226 42.1931C988.226 38.5369 985.412 37.5497 979.528 36.3431C972.986 34.9903 967.029 33.6009 967.029 26.1787C967.029 20.4019 971.525 16.7456 979.309 16.7456C987.751 16.7456 991.917 20.7309 992.648 26.5809H986.727C986.252 23.1075 983.877 21.1697 979.053 21.1697C974.229 21.1697 972.548 23.2903 972.548 25.8863C972.548 29.5425 975.8 30.0909 981.502 31.2244C988.189 32.5406 993.89 34.0397 993.89 41.9006C993.89 48.7378 988.299 52.2478 980.442 52.2478C971.378 52.1016 966.116 47.7141 965.604 40.8403H965.677ZM952.777 17.2941H958.587V51.1875H952.777V17.2941ZM959.245 7.82437C959.245 8.54751 959.031 9.25442 958.629 9.85568C958.228 10.457 957.657 10.9256 956.989 11.2023C956.321 11.479 955.587 11.5514 954.878 11.4104C954.169 11.2693 953.518 10.9211 953.007 10.4097C952.495 9.8984 952.147 9.24692 952.006 8.53767C951.865 7.82843 951.938 7.09328 952.214 6.42519C952.491 5.7571 952.959 5.18607 953.56 4.78432C954.161 4.38256 954.868 4.16812 955.591 4.16812C956.547 4.18727 957.458 4.58091 958.128 5.26453C958.797 5.94814 959.172 6.86721 959.172 7.82437H959.245ZM940.388 51.1875C935.893 51.1875 932.786 49.3228 932.786 44.3137V21.9375H927.524V17.2941H932.786V6.69094H938.487V17.3306H945.395V21.9375H938.487V43.2534C938.487 45.7031 939.803 46.3978 941.923 46.3978C942.909 46.3666 943.889 46.2319 944.846 45.9956H945.066V50.8219C943.523 51.1016 941.956 51.224 940.388 51.1875ZM904.719 51.1875V17.2941H910.457V23.4366H910.64C911.491 21.5041 912.882 19.8585 914.645 18.6976C916.409 17.5366 918.469 16.9096 920.58 16.8919C921.305 16.8621 922.027 16.9867 922.7 17.2575V22.815H922.481C921.726 22.5703 920.934 22.459 920.142 22.4859C918.827 22.4828 917.526 22.7506 916.319 23.2727C915.112 23.7947 914.026 24.5598 913.128 25.5202C912.229 26.4806 911.538 27.6159 911.098 28.8552C910.657 30.0944 910.476 31.4112 910.567 32.7234V51.0047L904.719 51.1875ZM889.663 38.7197V33.0891C887.371 34.2729 884.903 35.0756 882.354 35.4656C876.872 36.4163 873.254 37.4034 873.254 42.0469C873.254 46.6903 876.543 47.4581 879.942 47.4581C881.165 47.5372 882.393 47.369 883.55 46.9634C884.708 46.5579 885.772 45.9234 886.679 45.0977C887.586 44.272 888.318 43.2721 888.83 42.1575C889.343 41.0429 889.626 39.8364 889.663 38.61V38.7197ZM867.114 42.3759C867.114 34.515 872.815 32.8331 881.513 31.7363C886.41 31.1878 889.626 30.3834 889.626 26.91C889.626 23.4366 887.068 20.9869 882.317 20.9869C877.018 20.9869 874.496 23.5097 874.277 27.5316H868.686C868.942 21.8278 873.254 16.5628 882.281 16.5628C885.098 16.4533 887.895 17.0836 890.394 18.3909C891.911 19.3617 893.133 20.7311 893.926 22.3496C894.719 23.968 895.052 25.7732 894.889 27.5681V43.3266C894.889 46.0687 895.51 47.4947 898.543 46.9828H898.799V51.0778C897.804 51.4393 896.751 51.6129 895.693 51.5897C894.95 51.6604 894.2 51.5765 893.491 51.3434C892.782 51.1102 892.129 50.7328 891.573 50.2348C891.017 49.7368 890.57 49.1291 890.26 48.4499C889.95 47.7707 889.784 47.0347 889.772 46.2881C888.528 48.099 886.848 49.5674 884.887 50.5578C882.927 51.5483 880.748 52.0289 878.553 51.9553C872.084 51.8091 867.114 48.6281 867.114 42.1566V42.3759ZM833.748 17.5134H839.961L845.808 35.7947C847.233 40.3284 848.878 46.5441 848.878 46.5441C848.878 46.5441 850.303 40.3284 851.802 35.7947L857.795 17.5134H863.789L851.875 51.1875H845.479L833.748 17.5134ZM824.721 34.4419C824.721 27.1294 821.067 21.3525 814.342 21.3525C807.618 21.3525 804 26.91 804 34.2225C804 41.535 807.655 47.2387 814.416 47.2387C821.177 47.2387 824.721 41.535 824.721 34.2225V34.4419ZM798.007 34.4419C798.007 24.6066 804.293 16.7091 814.379 16.7091C824.466 16.7091 830.642 24.6066 830.642 34.4419C830.642 44.2772 824.466 52.2478 814.379 52.2478C804.293 52.2478 798.007 44.1309 798.007 34.2225V34.4419ZM753.202 4.27781H759.853L778.857 33.5278C781.123 37.1841 784.046 42.8513 784.046 42.8513C784.046 42.8513 783.644 36.7088 783.644 32.8697V4.27781H789.638V51.1875H783.023L764.092 21.9375C761.863 18.2812 758.793 12.6872 758.793 12.6872C758.793 12.6872 759.195 18.8297 759.195 22.5591V51.1875H753.202V4.27781ZM700.028 32.4309H714.866L710.444 19.3416C708.909 14.8078 707.63 9.39656 707.63 9.39656H707.447C707.447 9.39656 706.095 14.9906 704.596 19.3416L700.028 32.4309ZM716.583 37.44H698.311L693.56 51.1875H687.055L704.012 4.42406H711.102L728.168 51.1875H721.152L716.583 37.44ZM617.618 80.6934H658.367V113.6H553.298L600.296 36.5625H563.348V3.2175H663.739L617.618 80.6934ZM498.334 36.8184C485.945 36.8184 478.38 45.8494 478.38 58.5C478.38 71.1506 486.091 80.4375 498.334 80.4375C510.577 80.4375 518.617 71.6991 518.617 58.5C518.617 45.3009 510.504 36.7819 498.297 36.7819L498.334 36.8184ZM497.895 117C464.127 117 438.546 93.8194 438.546 58.5C438.546 24.0581 463.433 0 497.676 0C531.919 0 558.415 23.5462 558.415 58.5C558.415 93.4538 536.085 117 497.895 117ZM374.043 36.5625H369.511V80.8031H374.043C387.601 80.8031 394.764 73.8928 394.764 59.3044C394.691 45.8128 387.857 36.5625 374.043 36.5625ZM372.764 113.344L360.229 113.673H330.042V3.2175H358.803L371.302 3.43688C406.934 3.43688 434.197 16.38 434.197 58.9022C434.27 99.0844 408.615 113.344 372.764 113.344ZM279.938 113.673L247.047 59.8163V113.782H209.223V3.2175H247.157L280.048 57.4397V3.2175H317.726V113.782L279.938 113.673ZM146.182 39.0122L136.68 73.6369H155.647L146.182 39.0122ZM164.455 113.782L161.275 99.7791H131.564L127.58 113.782H86.5031L124.73 3.2175H169.352L205.897 113.782H164.455ZM44.0738 117C28.6787 116.39 13.617 112.329 0 105.117L13.5584 74.0391C21.8542 80.145 30.0403 86.0316 40.8578 86.0316C43.818 86.0316 49.5922 85.41 49.5922 80.8397C49.5922 76.2694 45.2798 75.1359 39.5056 73.5272C26.6782 69.8709 6.2493 65.9953 6.2493 38.6466C6.2493 11.2978 27.4091 0.365626 52.0773 0.365626C65.1075 0.504801 77.8119 4.45771 88.6227 11.7366L76.7455 39.5606C76.7455 39.5606 66.9879 30.6759 56.2069 30.6759C50.0673 30.6759 46.2666 32.4675 46.2666 36.27C46.2666 40.0725 52.3697 41.7178 56.0242 42.8878C68.8517 46.8 89.8653 51.1875 89.8653 78.4997C89.7191 106.397 69.144 117 44.0738 117Z" fill="white"/>
</g>
</g>
</g>
<defs>
<clipPath id="clip0_10_156">
<rect width="994" height="117" fill="white"/>
</clipPath>
<clipPath id="clip1_10_156">
<rect width="994" height="117" fill="white"/>
</clipPath>
<clipPath id="clip2_10_156">
<rect width="994" height="117" fill="white"/>
</clipPath>
</defs>
</svg>
