<svg width="1054" height="269" viewBox="0 0 1054 269" fill="none" xmlns="http://www.w3.org/2000/svg">
<path fill-rule="evenodd" clip-rule="evenodd" d="M38.0954 211.322L55.3687 164.438L71.8459 211.322H38.0954ZM88.6314 258.571H104.469L63.3634 145.708H47.6992L4.6814 258.571H20.6708L33.302 223.982H76.3198L88.6314 258.571Z" fill="white"/>
<path fill-rule="evenodd" clip-rule="evenodd" d="M138.904 219.594C124.226 216.422 109.067 212.958 109.067 195.26C109.067 179.72 122.213 169.924 142.071 169.924C154.916 169.924 167.182 174.704 173.304 186.389L159.95 191.96C158.879 188.838 151.967 180.981 140.434 180.981C129.132 180.981 123.475 187.667 123.475 193.456C123.475 201.582 134.222 204.967 143.389 206.811C162.366 210.627 178.866 215.48 178.866 233.363C178.866 247.261 166.515 260.319 142.923 260.319C125.555 260.319 113.215 254.513 107.278 242.38L122.511 239.724C126.334 246.37 133.247 249.251 143.546 249.251C156.317 249.251 163.785 244.381 163.785 235.162C163.79 225.411 151.535 222.323 138.904 219.594Z" fill="white"/>
<path fill-rule="evenodd" clip-rule="evenodd" d="M210.497 172.524H226.094V184.523H210.497V233.346C210.497 243.473 210.497 247.816 216.659 247.816C219.378 247.816 223.196 246.723 226.094 245.827V257.708C223.555 258.066 217.561 259.154 212.118 259.154C195.439 259.154 195.439 251.05 195.618 239.864V184.523H182.011V172.524H195.618V152.024L210.497 145.837V172.524Z" fill="white"/>
<path fill-rule="evenodd" clip-rule="evenodd" d="M253.498 172.743V188.109C261.656 171.897 277.079 171.532 282.881 171.353V186.221C268.736 186.316 261.801 189.214 257.131 196.818C253.296 203.028 253.498 211.753 253.498 219.123V258.571H239.095V172.743H253.498Z" fill="white"/>
<path fill-rule="evenodd" clip-rule="evenodd" d="M449.419 145.725V159.803L385.517 245.031H451.022V258.571H368.076V243.91L432.291 159.64H368.126V145.725H449.419Z" fill="white"/>
<path fill-rule="evenodd" clip-rule="evenodd" d="M555.727 173.337V185.806C563.744 171.796 577.401 170.524 582.497 170.524C593.424 170.524 606.515 175.988 610.692 190.149C612.155 195.216 612.155 200.467 612.155 207.713V258.571H597.792V210.067C597.792 201.369 597.792 198.841 596.878 195.938C594.333 187.796 586.321 184.175 578.489 184.175C572.12 184.175 566.654 186.165 562.096 190.687C555.721 197.026 555.721 203.532 555.721 209.887V258.571H541.313V173.337H555.727Z" fill="white"/>
<path fill-rule="evenodd" clip-rule="evenodd" d="M777.841 243.378C772.464 251.818 762.698 260.314 745.116 260.314C714.775 260.314 703.315 236.939 703.315 215.94C703.315 191.679 716.518 169.694 743.849 169.694C754.569 169.694 769.583 172.922 777.891 186.759L764.391 192.391C761.84 186.77 756.346 180.275 744.393 180.275C720.712 180.275 719.327 207.248 719.327 214.858C719.327 243.137 735.58 249.251 745.29 249.251C756.408 249.251 762.087 243.921 765.086 238.048L777.841 243.378Z" fill="white"/>
<path fill-rule="evenodd" clip-rule="evenodd" d="M471.721 206.872H517.25C515.978 184.422 503.033 180.628 494.399 180.628C482.076 180.634 473.347 189.673 471.721 206.872ZM529.102 242.268C524.191 250.624 514.711 260.213 496.019 260.213C470.678 260.213 456.102 242.997 456.102 214.135C456.102 181.894 477.378 169.571 495.486 169.571C511.229 169.571 526.322 178.269 531.395 199.811C533.032 207.057 533.032 213.592 533.032 217.218H471.362C471.003 231.553 477.013 249.694 497.292 249.341C505.567 249.201 511.392 245.446 515.109 239.561L529.102 242.268Z" fill="white"/>
<path fill-rule="evenodd" clip-rule="evenodd" d="M635.5 206.872H681.035C679.768 184.422 666.823 180.628 658.184 180.628C645.872 180.634 637.137 189.673 635.5 206.872ZM692.893 242.268C687.982 250.624 678.507 260.213 659.815 260.213C634.474 260.213 619.892 242.997 619.892 214.135C619.892 181.894 641.168 169.571 659.271 169.571C675.02 169.571 690.101 178.269 695.18 199.811C696.812 207.057 696.812 213.592 696.812 217.218H635.141C634.777 231.553 640.81 249.694 661.071 249.341C669.346 249.201 675.188 245.446 678.894 239.561L692.893 242.268Z" fill="white"/>
<path fill-rule="evenodd" clip-rule="evenodd" d="M856.577 258.66L841.597 258.716C841.597 258.716 840.301 252.67 839.881 246.068C835.53 250.585 827.457 259.927 811.143 259.927C794.458 259.927 782.079 250.036 782.079 235.543C782.079 230.998 783.352 226.476 785.897 222.654C790.814 215.396 799.913 209.59 825.473 207.601L839.057 206.514V204.334C839.057 195.445 839.057 180.578 819.905 180.578C807.857 180.578 803.753 186.417 802.363 191.691L789.098 186.154C789.306 185.694 789.547 185.223 789.799 184.747C794.895 175.321 804.892 169.515 819.35 169.515C827.311 169.515 837.616 171.516 844.332 176.772C853.891 184.013 853.661 198.275 853.661 198.275L854.239 242.291C854.239 242.302 854.749 255.079 856.577 258.66ZM836.882 235C839.057 230.286 839.242 228.291 839.242 215.76C833.635 216.668 826.05 217.756 816.766 219.756C800.81 223.197 798.091 229.205 798.091 235.185C798.091 242.078 803.535 247.889 814.226 247.889C824.206 247.889 832.722 243.899 836.882 235Z" fill="white"/>
<path fill-rule="evenodd" clip-rule="evenodd" d="M357.906 258.66L342.926 258.716C342.926 258.716 341.625 252.67 341.21 246.068C336.859 250.585 328.797 259.927 312.477 259.927C295.781 259.927 283.408 250.036 283.408 235.543C283.408 230.998 284.681 226.476 287.232 222.654C292.149 215.396 301.242 209.59 326.79 207.601L340.391 206.514V204.334C340.391 195.445 340.391 180.578 321.229 180.578C309.181 180.578 305.088 186.417 303.686 191.691L290.422 186.154C290.64 185.694 290.87 185.223 291.128 184.747C296.224 175.321 306.226 169.515 320.674 169.515C328.629 169.515 338.945 171.516 345.656 176.772C355.215 184.013 354.985 198.275 354.985 198.275L355.562 242.291C355.562 242.302 356.073 255.079 357.906 258.66ZM338.211 235C340.397 230.286 340.565 228.291 340.565 215.76C334.97 216.668 327.373 217.756 318.1 219.756C302.156 223.197 299.431 229.205 299.431 235.185C299.431 242.078 304.864 247.889 315.555 247.889C325.529 247.889 334.045 243.899 338.211 235Z" fill="white"/>
<path fill-rule="evenodd" clip-rule="evenodd" d="M1053.46 139.773C1053.4 139.247 1053.34 138.72 1053.21 138.21C1052.94 137.168 1052.65 136.125 1052.26 135.128C1051.82 134.068 1051.29 133.043 1050.73 132.051C1050.09 130.958 1049.39 129.91 1048.64 128.885C1048.21 128.285 1047.71 127.725 1047.19 127.192C1046.62 126.598 1046.02 126.01 1045.37 125.494C1043.9 124.328 1042.45 123.14 1040.84 122.16C1037.34 120.013 1033.86 117.783 1030.1 116.13C1025.56 114.134 1021.17 111.769 1016.49 110.144L984.941 99.1937C984.941 93.1973 985.114 87.2008 984.941 81.21C984.677 72.3162 984.318 63.4167 983.629 54.5453C983.147 48.3696 982.407 42.2106 981.442 36.0908C980.691 31.3161 979.553 26.6086 978.493 21.8955C978.252 20.8139 977.888 19.7659 977.529 18.7235C977.209 17.782 976.862 16.8461 976.475 15.927C976.127 15.0976 975.746 14.2794 975.337 13.4724C974.967 12.7495 974.558 12.0433 974.126 11.354C973.739 10.732 973.307 10.1267 972.864 9.53828C972.461 9.00589 972.035 8.49591 971.581 8.00835C971.171 7.56001 970.734 7.1341 970.28 6.72499C969.871 6.35512 969.433 6.01326 968.985 5.68262C968.57 5.37999 968.138 5.09978 967.701 4.8476C967.292 4.61222 966.877 4.38245 966.44 4.20312C965.677 3.88928 964.903 3.59226 964.113 3.3681C963.457 3.18316 962.779 3.08228 962.106 2.98701C961.601 2.91416 961.091 2.88053 960.587 2.86933C959.723 2.85251 958.848 2.8357 957.991 2.89735C957.071 2.9646 956.152 3.07668 955.249 3.25601C954.279 3.44655 953.321 3.68753 952.384 4.00137C951.375 4.33762 950.394 4.74672 949.447 5.21187C948.387 5.73305 947.372 6.3383 946.369 6.96597C945.309 7.63287 944.261 8.32778 943.257 9.07874C941.502 10.4013 939.708 11.6847 938.111 13.1866C931.523 19.3736 925.053 25.6839 918.729 32.1287C915.354 35.564 912.086 39.1171 909.03 42.827C896.876 57.538 884.777 72.2937 873.088 87.3745C867.896 94.0659 863.226 101.144 858.421 108.104C857.222 109.847 856.1 111.646 855.063 113.49C853.264 116.712 851.576 119.996 849.928 123.297C849.502 124.155 849.165 125.063 848.84 125.965C848.526 126.828 848.24 127.702 848.01 128.588C847.797 129.423 847.612 130.274 847.517 131.132C847.433 131.922 847.422 132.723 847.472 133.514C847.5 133.912 847.618 134.304 847.747 134.679C847.887 135.088 848.072 135.481 848.285 135.856C848.521 136.265 848.795 136.652 849.081 137.022C849.395 137.425 849.715 137.818 850.073 138.176C850.853 138.944 851.649 139.695 852.495 140.39C853.364 141.107 854.261 141.791 855.203 142.407C856.846 143.483 858.545 144.487 860.232 145.473C860.972 145.904 861.752 146.274 862.503 146.667C862.772 146.801 861.97 146.386 861.707 146.241C861.673 146.23 861.589 146.179 861.617 146.19C861.662 146.201 861.707 146.235 861.746 146.258C862.161 146.476 862.576 146.689 862.996 146.908C873.385 152.332 883.813 157.679 894.151 163.188C904.545 168.725 914.934 174.278 925.199 180.045L948.28 193.007C940.263 199.071 932.095 204.928 924.246 211.187C921.246 213.58 918.46 216.231 915.741 218.938C913.532 221.14 911.452 223.477 909.49 225.893C907.92 227.826 906.491 229.872 905.156 231.973C904.108 233.61 903.188 235.341 902.364 237.095C901.736 238.429 901.232 239.819 900.789 241.226C900.469 242.212 900.262 243.226 900.082 244.246C899.976 244.857 899.954 245.491 899.92 246.118C899.909 246.331 899.948 246.544 899.948 246.757C899.959 247.323 899.931 247.883 899.965 248.444C899.993 248.971 900.054 249.497 900.138 250.007C900.217 250.506 900.324 250.999 900.458 251.487C900.581 251.947 900.744 252.406 900.918 252.854C901.092 253.286 901.288 253.712 901.501 254.127C901.714 254.53 901.933 254.939 902.207 255.303C902.74 256.032 903.278 256.755 903.912 257.394C904.545 258.033 905.24 258.615 905.969 259.148C906.698 259.686 907.483 260.157 908.279 260.594C909.086 261.031 909.922 261.412 910.774 261.765C911.62 262.118 912.472 262.494 913.37 262.69C916.593 263.401 919.839 264.052 923.113 264.494C924.717 264.713 926.348 264.802 927.957 264.674C933.536 264.236 939.108 263.67 944.636 262.802C951.089 261.787 957.492 260.431 963.877 259.036C971.407 257.388 978.914 255.645 986.37 253.689C991.64 252.305 997 251.078 1002.05 249.016C1006.02 247.396 1010.03 245.849 1013.98 244.151C1014.86 243.776 1015.7 243.282 1016.53 242.795C1017.28 242.358 1018.02 241.881 1018.72 241.377C1019.35 240.934 1019.96 240.464 1020.52 239.937C1020.99 239.494 1021.42 239.001 1021.8 238.474C1022.13 238.031 1022.41 237.538 1022.64 237.028C1022.84 236.58 1022.99 236.098 1023.1 235.61C1023.2 235.168 1023.24 234.702 1023.24 234.249C1023.24 233.806 1023.19 233.363 1023.11 232.932C1023.02 232.511 1022.9 232.091 1022.74 231.682C1022.59 231.273 1022.39 230.875 1022.17 230.494C1021.95 230.113 1021.71 229.737 1021.45 229.384C1021.19 229.031 1020.92 228.678 1020.62 228.353C1020.04 227.748 1019.45 227.137 1018.83 226.588C1018.29 226.106 1017.7 225.674 1017.12 225.259C1016.54 224.85 1015.94 224.469 1015.34 224.105C1011.23 221.628 1007.14 219.1 1003 216.663L985.669 206.435C996.193 199.301 1006.81 192.301 1017.24 185.016C1021.7 181.906 1026.08 178.689 1030.31 175.276C1033.93 172.351 1037.38 169.212 1040.75 166.018C1042.36 164.499 1043.79 162.812 1045.25 161.148C1045.91 160.391 1046.52 159.584 1047.1 158.76C1047.63 158.015 1048.17 157.264 1048.59 156.446C1049.95 153.756 1051.28 151.049 1052.41 148.258C1052.87 147.121 1053.06 145.893 1053.32 144.694C1053.43 144.139 1053.48 143.568 1053.52 143.001C1053.57 142.458 1053.59 141.909 1053.58 141.365C1053.55 140.838 1053.52 140.3 1053.46 139.773ZM924.106 68.9817C929.981 62.8899 935.868 56.8094 941.844 50.813C942.932 49.7202 944.143 48.7394 945.309 47.7251C945.713 47.372 946.144 47.0358 946.576 46.7051C946.907 46.4529 947.232 46.1895 947.591 45.9654C947.843 45.8084 948.112 45.6739 948.387 45.5619C948.679 45.4442 948.97 45.3265 949.284 45.2761C949.609 45.22 949.94 45.2256 950.276 45.2424C950.445 45.248 950.613 45.2929 950.775 45.3489C950.944 45.3993 951.117 45.4778 951.274 45.5675C951.442 45.6627 951.611 45.7748 951.756 45.8981C951.93 46.0382 952.093 46.1951 952.239 46.3633C952.407 46.5538 952.564 46.7556 952.698 46.9685C952.855 47.2151 953.023 47.4673 953.124 47.7419C953.41 48.4816 953.668 49.2382 953.859 50.0116C954.134 51.1156 954.347 52.2364 954.52 53.3685C954.947 56.1257 955.339 58.8886 955.647 61.657C956.051 65.2437 956.342 68.8416 956.673 72.4338L958.456 91.5609L937.135 86.6572L917.238 83.3844L912.422 83.0145L910.858 82.9753C915.27 78.307 919.649 73.6051 924.106 68.9817ZM910.735 95.579L910.813 95.4614L910.925 95.3997L911.088 95.3829L911.346 95.4221L912.091 95.6351L914.02 96.3748L916.644 97.5405C923.416 100.438 930.189 103.335 936.967 106.221C941.457 108.138 945.954 110.038 950.439 111.954L959.314 115.743L960.104 116.096C960.581 123.107 961.164 130.112 961.534 137.128C961.826 142.609 961.943 148.101 962.078 153.588C962.095 154.283 962.039 154.972 961.988 155.661C961.966 156.048 961.926 156.44 961.87 156.827C961.809 157.214 961.736 157.6 961.624 157.97C961.512 158.335 961.388 158.704 961.203 159.041C961.029 159.371 960.788 159.674 960.547 159.965C960.43 160.111 960.267 160.24 960.116 160.358C959.959 160.475 959.785 160.593 959.605 160.694C959.42 160.795 959.213 160.879 959.011 160.952C958.787 161.03 958.557 161.097 958.322 161.142C958.036 161.193 957.744 161.221 957.458 161.232C957.155 161.237 956.853 161.232 956.55 161.193C956.225 161.153 955.911 161.086 955.602 161.008C955.266 160.924 954.935 160.834 954.621 160.705C953.932 160.414 953.242 160.105 952.592 159.736C951.852 159.315 951.14 158.839 950.45 158.335C949.688 157.774 948.959 157.174 948.252 156.552C947.479 155.869 946.722 155.174 946.021 154.428C944.485 152.786 942.966 151.116 941.542 149.373C938.968 146.23 936.294 143.142 934.035 139.768C930.918 135.116 927.722 130.521 924.689 125.814C922.878 123.006 921.022 120.209 919.514 117.217L912.669 103.66L911.194 99.3394L910.858 98.0561L910.656 96.8176L910.639 95.9209L910.735 95.579ZM986.376 215.738C988.22 216.904 990.076 218.053 991.893 219.252C994.242 220.799 996.596 222.334 998.872 223.982C1000.51 225.164 1002.07 226.442 1003.62 227.748C1004.31 228.331 1004.95 228.958 1005.57 229.62C1006.07 230.163 1006.5 230.757 1006.95 231.351C1006.97 231.39 1006.98 231.441 1006.97 231.486C1006.97 231.592 1006.96 231.693 1006.93 231.794C1006.91 231.861 1006.86 231.917 1006.82 231.962C1006.75 232.024 1006.68 232.08 1006.6 232.113C1006.49 232.164 1006.38 232.192 1006.26 232.214C1006.1 232.248 1005.93 232.27 1005.77 232.281C996.776 232.954 987.772 233.57 978.785 234.277L943.65 237.034L942.556 237.101L943.061 236.557L945.275 234.602C949.833 231.217 954.24 227.624 958.938 224.441L978.835 210.958C981.341 212.549 983.859 214.141 986.376 215.738ZM1013.44 146.594C1013.34 146.919 1013.22 147.238 1013.07 147.535C1012.88 147.883 1012.67 148.219 1012.42 148.516C1011.82 149.228 1011.18 149.923 1010.5 150.556C1009.03 151.895 1007.58 153.268 1005.96 154.417C1000.37 158.374 994.853 162.426 989.201 166.287C985.311 168.949 981.296 171.437 977.327 173.987L954.246 188.81C950.977 186.938 947.709 185.061 944.44 183.195L902.639 159.31C893.198 153.672 883.701 148.129 874.321 142.391C872.555 141.309 870.896 140.054 869.208 138.854C868.67 138.473 868.171 138.036 867.655 137.633C867.493 137.509 867.313 137.397 867.162 137.263C866.809 136.938 866.45 136.602 866.119 136.243C865.917 136.019 865.749 135.778 865.581 135.526C865.418 135.262 865.256 134.988 865.143 134.696C865.026 134.399 864.919 134.085 864.874 133.76C864.824 133.424 864.818 133.082 864.869 132.746C864.919 132.376 865.02 132.017 865.149 131.67C865.284 131.294 865.452 130.925 865.659 130.583C866.074 129.877 866.517 129.176 867.022 128.52C867.605 127.769 868.227 127.052 868.889 126.374C874.287 120.82 879.771 115.345 885.197 109.814L899.83 94.8897L900.525 97.2995L902.303 101.536L902.42 101.794C906.289 108.497 909.922 115.339 914.025 121.902C918.74 129.445 923.803 136.77 928.86 144.083C931.237 147.507 933.715 150.864 936.328 154.12C938.598 156.95 940.947 159.73 943.498 162.319C945.735 164.589 948.185 166.662 950.674 168.663C951.908 169.649 953.293 170.445 954.649 171.258C955.288 171.65 955.978 171.964 956.668 172.272C957.324 172.558 957.991 172.81 958.669 173.029C959.331 173.242 960.003 173.415 960.687 173.555C961.304 173.684 961.938 173.785 962.566 173.841C963.137 173.892 963.715 173.903 964.292 173.88C964.819 173.869 965.352 173.819 965.879 173.735C966.367 173.662 966.854 173.55 967.325 173.415C967.774 173.292 968.211 173.135 968.643 172.95C969.041 172.788 969.433 172.592 969.815 172.379C970.173 172.177 970.538 171.969 970.869 171.717C971.474 171.258 972.08 170.781 972.629 170.26C973.1 169.812 973.532 169.319 973.924 168.803C974.429 168.147 974.883 167.452 975.303 166.741C975.813 165.878 976.296 164.987 976.716 164.073C977.187 163.053 977.624 162.016 977.977 160.952C978.706 158.732 979.401 156.496 979.957 154.221C980.702 151.15 981.526 148.073 981.857 144.924L983.752 126.705C988.075 128.716 992.498 130.543 996.725 132.746C1000.85 134.898 1004.8 137.386 1008.81 139.762C1009.28 140.043 1009.72 140.368 1010.14 140.715C1010.74 141.208 1011.31 141.729 1011.85 142.284C1012.14 142.576 1012.39 142.906 1012.61 143.242C1012.83 143.573 1013.03 143.926 1013.19 144.29C1013.33 144.649 1013.42 145.036 1013.49 145.417C1013.53 145.607 1013.52 145.804 1013.51 146C1013.51 146.207 1013.49 146.409 1013.44 146.594Z" fill="white"/>
</svg>
