<svg width="874" height="262" viewBox="0 0 874 262" fill="none" xmlns="http://www.w3.org/2000/svg">
<path fill-rule="evenodd" clip-rule="evenodd" d="M82.834 20.182H115.368L116.994 21.8086L118.214 23.4352C123.406 33.1886 123.176 34.0764 123.908 45.8021C124.016 63.1128 114.215 81.8946 125.128 97.8564C133.81 107.576 146.688 111.622 157.662 118.19L161.322 121.443L164.575 124.696L167.828 128.763L170.268 133.237L172.708 138.524L173.928 145.03L175.148 152.35L175.555 160.484V241.818H142.615V152.35L141.395 145.03L139.768 138.93L137.328 133.643L134.888 128.763L131.635 125.103L128.381 121.85C119.136 112.788 105.804 110.694 95.0342 100.703C73.5416 77.6651 105.303 45.843 82.834 20.182Z" fill="white"/>
<path fill-rule="evenodd" clip-rule="evenodd" d="M21.8333 20.182H53.9603L55.587 21.8086L56.807 23.4352C60.1756 30.3351 63.0088 37.9533 62.0938 45.8021C62.3988 61.8182 54.1772 78.7223 61.6871 94.1961C66.9399 106.301 85.2876 111.026 95.8475 118.19L103.168 124.696L106.014 128.763L108.454 133.237L110.894 138.524L112.114 145.03L113.334 152.35L113.741 160.484V241.818H81.2073V160.484L80.8006 152.35L79.5806 145.03L78.3606 138.93C73.2772 127.096 72.7011 127.083 63.3138 118.597C52.842 111.351 39.4692 108.064 31.1867 97.8564C21.413 84.8904 28.3265 65.4581 29.56 50.6824V39.2956L28.34 34.0087L27.5267 29.5355L25.9 26.2818L24.2733 23.4352L23.0533 21.8086L21.8333 20.5887V20.182Z" fill="white"/>
<path fill-rule="evenodd" clip-rule="evenodd" d="M143.835 20.182H176.368L176.775 20.5887L177.588 21.8086L178.808 23.4352L180.435 26.2818L182.062 29.5355L183.689 34.0087L184.502 39.2956C187.003 57.6162 175.359 76.4788 183.689 94.1961C189.789 105.874 206.923 111.175 218.256 118.19L221.509 121.443L225.169 124.696L228.422 128.763L230.862 133.237L233.302 138.524L234.523 145.03L236.149 152.35V241.818H203.209V152.35L201.989 145.03L200.362 138.93C195.618 125.429 194.723 127.842 185.722 118.597C175.067 111.629 161.681 108.294 153.595 97.8564C143.143 84.7955 150.355 66.0139 151.561 50.6824L151.968 45.8021L151.561 39.2956L150.748 34.0087L149.528 29.5355L147.901 26.2818L146.275 23.4352L145.055 21.8086L143.835 20.5887V20.182Z" fill="white"/>
<path fill-rule="evenodd" clip-rule="evenodd" d="M483.812 212.944V227.584H502.519L504.552 225.958L506.179 224.738L506.992 222.705L507.399 219.858L506.992 217.011L505.772 214.571L502.926 213.351L499.672 212.944H483.812ZM426.878 192.611L419.965 214.571H433.385L426.878 192.611ZM483.812 187.731V199.524H498.859L502.112 198.711L504.146 197.897L505.366 195.864L505.772 193.424L505.366 191.797L504.552 190.171L503.332 188.95L501.299 188.137L498.859 187.731H483.812ZM535.459 173.904H552.946V241.818H535.459V173.904ZM467.139 173.904H499.672L505.772 174.31L511.059 175.53L515.533 177.157L518.786 180.004L520.819 182.851C524.473 191.201 523.3 200.439 514.719 204.811C524.581 209.962 525.083 214.673 524.073 225.551L522.446 230.025L519.599 234.091L515.939 237.344L511.466 239.784L505.772 241.005L499.266 241.818H467.139V173.904ZM417.931 173.904H435.418L460.225 241.818H441.925L437.858 228.398H415.085L411.425 241.818H393.124L417.931 173.904ZM328.464 173.904H345.95V199.524L366.284 173.904H387.024L366.691 197.491L390.278 241.818H369.537L354.084 211.318L345.95 221.485V241.818H328.464V173.904Z" fill="white"/>
<path fill-rule="evenodd" clip-rule="evenodd" d="M402.884 86.4694V101.923H419.558L421.998 100.703L424.031 99.0766L424.845 96.6362L425.251 93.7896L424.845 91.3497L424.031 89.3164L421.998 87.6898L419.558 86.8761L416.305 86.4694H402.884ZM731.475 71.8294H748.962V114.937L750.182 118.19L751.809 121.443L753.842 123.477L757.095 125.103L760.755 125.51L764.009 125.103L766.856 123.477L769.296 121.443L770.922 118.19L771.736 114.937L772.142 110.463V71.8294H789.629C787.738 97.7141 800.331 140.286 760.755 140.557C720.766 140.645 733.346 98.0123 731.475 71.8294ZM702.601 71.8294H720.088V139.744H702.601V71.8294ZM631.841 71.8294H647.294L673.728 108.837V71.8294H689.995V139.744H676.168L648.514 100.703V139.744H631.841V71.8294ZM572.06 71.8294H621.267V86.8761H589.14V96.6362H610.694V111.277H589.14V125.103H623.707V139.744H572.06V71.8294ZM452.092 71.8294H501.299V86.8761H469.172V96.6362H490.726V111.277H469.172V125.103H503.739V139.744H452.092V71.8294ZM385.804 71.8294H421.998L427.285 73.0494L431.351 74.676L435.418 76.7093L438.265 79.963L440.705 83.6229C444.629 95.4977 442.142 108.403 429.725 113.717L443.145 139.744H424.031L412.645 116.157H402.884V139.744H385.804V71.8294ZM328.464 71.8294H379.298V86.8761H345.544V97.0429H369.537V112.497H345.544V139.744H328.464V71.8294ZM824.196 70.6095C836.146 70.989 840.517 72.0532 850.223 79.1497L841.276 92.163L836.803 89.3164L832.736 87.2828L828.263 86.4694L823.383 86.0628H820.13L817.689 86.8761L816.47 88.0965L815.656 89.3164L815.249 90.9431L815.656 92.163L816.876 93.7896L818.91 94.603C826.48 97.0972 834.173 98.5546 841.683 101.923C854.1 108.071 854.385 126.879 844.53 135.27C832.153 144.495 806.94 141.187 795.729 131.204L805.083 119.004C830.14 135.23 847.926 117.702 821.35 112.903C785.813 108.315 793.872 69.1726 824.196 70.6095ZM535.459 70.6095C548.446 71.0433 551.15 72.1617 561.893 79.1497L552.54 92.163L548.473 89.3164L544 87.2828L539.526 86.4694L534.646 86.0628H531.393L528.953 86.8761L527.733 88.0965L526.919 89.3164L526.513 90.9431L526.919 92.163L528.139 93.7896L530.579 94.603C537.71 97.226 545.647 98.5546 552.946 101.923C565.248 107.888 565.96 127.442 555.386 135.27C543.281 144.678 517.925 140.909 506.992 131.204L516.753 119.004L520.413 121.443L525.293 123.477L530.579 125.103L535.866 125.51H539.526L542.373 125.103L544 123.883C550.215 116.021 537.527 114.347 532.613 112.903C497.897 108.545 504.335 69.5521 535.459 70.6095Z" fill="white"/>
</svg>
