<svg width="2500" height="1080" viewBox="0 0 2500 1080" fill="none" xmlns="http://www.w3.org/2000/svg">
<path d="M326.2 623.7V484.6H299.3V452H326.2V385H391.8V416H359.8C359.8 416 359.8 419.4 359.8 426.3V452H449V623.7H415.4V484.6H359.9V623.7H326.2ZM413.7 421.1V385H450.7V421.1H413.7ZM493.2 623.7V383.3H526.8V472.6H528.5C532.1 468.5 535.1 465.2 537.6 462.8C540.1 460.4 545.4 457.4 553.6 453.9C561.8 450.4 570.8 448.6 580.7 448.6C603.1 448.6 621.6 456.7 636.2 473C650.8 489.3 658.1 510.9 658.1 537.9C658.1 564.9 650.8 586.5 636.2 602.8C621.6 619.1 603.1 627.2 580.7 627.2C557.8 627.2 540.4 619.2 528.5 603.2H526.8L523.4 623.8H493.2V623.7ZM540.8 580.1C550.1 590.9 561.7 596.2 575.6 596.2C589.5 596.2 601.1 590.8 610.4 580.1C619.7 569.3 624.4 555.3 624.4 537.9C624.4 520.5 619.7 506.4 610.4 495.7C601.1 484.9 589.5 479.6 575.6 479.6C561.7 479.6 550.1 485 540.8 495.7C531.5 506.5 526.8 520.5 526.8 537.9C526.9 555.2 531.5 569.3 540.8 580.1ZM828.7 602.4C812.9 618.9 792.8 627.1 768.3 627.1C743.8 627.1 723.7 618.9 707.9 602.4C692.1 585.9 684.2 564.4 684.2 537.9C684.2 511.3 692.1 489.8 707.9 473.4C723.7 456.9 743.8 448.7 768.3 448.7C792.7 448.7 812.9 456.9 828.7 473.4C844.5 489.9 852.4 511.4 852.4 537.9C852.4 564.4 844.5 585.9 828.7 602.4ZM732.1 580.2C741.6 590.8 753.7 596.2 768.3 596.2C782.9 596.2 794.9 590.9 804.5 580.2C814 569.6 818.8 555.4 818.8 537.8C818.8 520.2 814 506 804.5 495.4C795 484.8 782.9 479.4 768.3 479.4C753.7 479.4 741.7 484.7 732.1 495.4C722.6 506 717.8 520.2 717.8 537.8C717.8 555.5 722.6 569.6 732.1 580.2ZM886.5 623.7V452H916.8L920.2 469.2H921.9C925.7 465.3 929.9 461.9 934.3 458.9C945.1 452 957.2 448.6 970.6 448.6C991 448.6 1007.3 455.1 1019.6 468C1031.8 480.9 1037.9 498.5 1037.9 520.7V623.7H1004.3V520.7C1004.3 509.5 1000.4 499.8 992.7 491.7C985 483.6 975.4 479.5 963.9 479.5C951.6 479.5 941.2 483.6 932.8 491.7C924.4 499.8 920.2 509.5 920.2 520.7V623.7H886.5ZM1377 563.6H1410.6C1409 570.7 1406.5 577.7 1403 584.5C1399.5 591.4 1394.8 598.1 1388.9 604.8C1383 611.4 1375.2 616.8 1365.5 620.9C1355.9 625 1345.1 627.1 1333.2 627.1C1308.7 627.1 1288.6 618.9 1272.8 602.4C1257 585.9 1249.1 564.4 1249.1 537.9C1249.1 511.3 1257 489.8 1272.8 473.4C1288.6 456.9 1308.7 448.7 1333.2 448.7C1355.6 448.7 1373.2 455.2 1386 468.1C1398.8 481 1407 495.2 1410.6 510.5H1377C1369.8 489.9 1355.2 479.6 1333.3 479.6C1318.7 479.6 1306.7 484.9 1297.1 495.6C1287.6 506.2 1282.8 520.4 1282.8 538C1282.8 555.6 1287.6 569.8 1297.1 580.4C1306.6 591 1318.7 596.4 1333.3 596.4C1345.4 596.4 1355.2 593.1 1362.6 586.4C1369.9 579.6 1374.7 572.1 1377 563.6ZM1562.2 563.6H1595.8C1594.2 570.7 1591.7 577.7 1588.2 584.5C1584.7 591.4 1580 598.1 1574.1 604.8C1568.2 611.4 1560.4 616.8 1550.7 620.9C1541.1 625 1530.3 627.1 1518.4 627.1C1493.9 627.1 1473.8 618.9 1458 602.4C1442.2 585.9 1434.3 564.4 1434.3 537.9C1434.3 511.3 1442.2 489.8 1458 473.4C1473.8 456.9 1493.9 448.7 1518.4 448.7C1540.8 448.7 1558.4 455.2 1571.2 468.1C1584 481 1592.2 495.2 1595.8 510.5H1562.2C1555 489.9 1540.4 479.6 1518.5 479.6C1503.9 479.6 1491.9 484.9 1482.3 495.6C1472.8 506.2 1468 520.4 1468 538C1468 555.6 1472.8 569.8 1482.3 580.4C1491.8 591 1503.9 596.4 1518.5 596.4C1530.6 596.4 1540.4 593.1 1547.8 586.4C1555.2 579.6 1560 572.1 1562.2 563.6ZM1626 419.4V383.3H1663V419.4H1626ZM1627.6 623.7V452H1661.2V623.7H1627.6ZM1079.9 451.9V484.5H1182.5V509.3H1140.4C1098.7 509.3 1071.4 529.3 1071.4 568.2C1071.4 608.1 1099.1 627.1 1132 627.1C1167.9 627.1 1179.1 609.1 1182.5 604.8H1184.2L1187.6 623.7H1216.2V451.9H1079.9ZM1182.6 551.5C1182.6 580 1162.2 597.9 1135.5 597.9C1116.6 597.9 1105.2 585.6 1105.2 566.5C1105.2 547.7 1120.7 536.8 1142.2 536.8H1182.6V551.5Z" fill="white"/>
<path d="M1791.2 622.9V550.4H1803.3V580.9H1837.7V550.4H1849.8V622.9H1837.7V592.3H1803.3V622.9H1791.2Z" fill="white"/>
<path d="M1863.9 622.9V550.4H1910.7V561.8H1876V579.7H1904.7V591H1876V611.5H1910.7V622.9H1863.9Z" fill="white"/>
<path d="M1917.8 622.9L1940.7 550.4H1958.5L1981.4 622.9H1968.9L1948.1 557.8H1950.8L1930.3 622.9H1917.8ZM1930.5 607.2V595.9H1968.6V607.2H1930.5Z" fill="white"/>
<path d="M1991.4 622.9V550.4H2003.5V611.6H2035.5V623H1991.4V622.9Z" fill="white"/>
<path d="M2051.5 622.9V561.7H2028V550.3H2087.1V561.7H2063.6V622.9H2051.5Z" fill="white"/>
<path d="M2095.2 622.9V550.4H2107.3V580.9H2141.7V550.4H2153.8V622.9H2141.7V592.3H2107.3V622.9H2095.2Z" fill="white"/>
</svg>
