<svg width="479" height="355" viewBox="0 0 479 355" fill="none" xmlns="http://www.w3.org/2000/svg">
<g clip-path="url(#clip0_10_100)">
<path d="M387.025 57.8213C380.365 90.4668 362.646 119.807 336.866 140.878C311.086 161.95 278.827 173.459 245.547 173.459C212.267 173.459 180.008 161.95 154.228 140.878C128.448 119.807 110.729 90.4668 104.069 57.8213H176.26C176.26 76.2334 183.565 93.8914 196.569 106.911C209.573 119.93 227.21 127.244 245.6 127.244C263.991 127.244 281.628 119.93 294.632 106.911C307.635 93.8914 314.941 76.2334 314.941 57.8213H387.025Z" fill="white"/>
<path d="M303.309 57.8213C303.309 69.2572 299.922 80.4364 293.576 89.9451C287.23 99.4537 278.21 106.865 267.657 111.241C257.104 115.618 245.492 116.763 234.289 114.532C223.086 112.301 212.796 106.794 204.719 98.7071C196.642 90.6207 191.141 80.3179 188.913 69.1016C186.685 57.8854 187.828 46.2595 192.199 35.694C196.571 25.1286 203.973 16.0981 213.47 9.74461C222.968 3.39113 234.134 0 245.556 0C260.872 0.00471299 275.559 6.09807 286.388 16.9406C297.218 27.7832 303.304 42.4876 303.309 57.8213Z" fill="white"/>
<path d="M365.91 337.718L372.303 321.04L379.407 337.718H365.91ZM352.43 355H359.41L363.672 343.834H382.141L386.99 355H393.862L375.5 312.701H368.822L352.43 355ZM332.895 312.701H339.52V355H333.233V323.956L320.624 343.158H316.077L303.38 323.956V355H297.075V312.701H303.575L318.404 335.584L332.895 312.701ZM247.332 312.701H266.867C268.603 312.653 270.331 312.954 271.949 313.586C273.568 314.217 275.043 315.166 276.289 316.378C277.535 317.589 278.527 319.037 279.205 320.638C279.884 322.239 280.235 323.959 280.239 325.698C280.243 328.381 279.44 331.002 277.935 333.221C276.431 335.441 274.295 337.156 271.804 338.144L281.394 355.036H274.29L265.286 338.731H253.849V355.036H247.261L247.332 312.701ZM273.811 325.858C273.844 324.948 273.693 324.04 273.367 323.19C273.04 322.34 272.545 321.565 271.911 320.912C271.277 320.259 270.517 319.741 269.678 319.39C268.838 319.04 267.936 318.863 267.027 318.871H254.045V332.846H267.027C268.85 332.813 270.586 332.06 271.856 330.751C273.127 329.442 273.83 327.683 273.811 325.858ZM207.516 337.789L213.909 321.111L221.013 337.789H207.516ZM194.054 355.071H200.998L205.26 343.905H223.659L228.507 355.071H235.398L216.981 312.701H210.304L194.054 355.071ZM181.072 355.071H174.359V336.526H151.841V354.964H145.252V312.701H151.841V330.481H174.359V312.701H180.948L181.072 355.071ZM116.766 312.701C118.595 312.635 120.419 312.938 122.128 313.593C123.837 314.248 125.397 315.242 126.714 316.514C128.032 317.786 129.079 319.311 129.795 320.997C130.511 322.683 130.879 324.497 130.879 326.329C130.879 328.162 130.511 329.975 129.795 331.662C129.079 333.348 128.032 334.873 126.714 336.145C125.397 337.417 123.837 338.41 122.128 339.065C120.419 339.721 118.595 340.024 116.766 339.958H103.98V355H97.3911V312.701H116.766ZM103.98 318.711V333.841H116.766C117.756 333.86 118.74 333.681 119.659 333.314C120.579 332.947 121.415 332.399 122.12 331.703C122.825 331.007 123.384 330.177 123.764 329.262C124.144 328.347 124.337 327.365 124.332 326.374C124.339 325.377 124.148 324.389 123.77 323.467C123.393 322.545 122.836 321.707 122.132 321.002C121.428 320.297 120.591 319.74 119.67 319.362C118.749 318.983 117.762 318.792 116.766 318.799H103.98V318.711Z" fill="white"/>
<path d="M415.032 244.496C415.029 248.581 415.837 252.626 417.409 256.395C418.981 260.165 421.285 263.584 424.189 266.454C427.092 269.324 430.536 271.588 434.32 273.115C438.105 274.641 442.155 275.399 446.234 275.345C450.183 275.501 454.109 274.675 457.66 272.941C461.212 271.206 464.279 268.617 466.586 265.405V273.567C466.586 286.955 459.607 292.769 447.602 292.769C438.385 292.769 431.033 289.96 426.77 279.381L416.115 286.653C421.727 298.779 432.205 304.433 447.513 304.433C467.954 304.433 478.893 293.178 478.893 273.495V215.283H466.586V223.729C462.129 217.31 454.954 214.021 446.234 214.021C429.186 213.914 415.032 226.467 415.032 244.389M447.495 263.947C436.058 263.947 427.25 256.675 427.25 244.389C427.25 232.548 435.774 225.169 447.495 225.169C458.453 225.169 467.261 232.832 467.261 244.389C467.261 255.946 458.541 263.947 447.495 263.947ZM388.002 215.354V225.044C384.219 219.319 377.435 214.181 366.194 214.181C348.435 214.181 334.6 228.156 334.6 247.359C334.6 266.561 348.079 280.643 366.194 280.643C377.435 280.643 384.131 275.398 388.002 269.673V279.096H400.433V215.39L388.002 215.354ZM388.588 247.27C388.588 259.591 379.371 269.104 367.739 269.104C355.645 269.104 346.907 260.463 346.907 247.27C346.907 234.663 355.538 225.435 367.739 225.435C379.176 225.542 388.588 234.557 388.588 247.27ZM315.42 215.354L300.307 260.071L284.608 215.443H276.173L260.474 260.071L245.396 215.39H233.142L254.666 279.132H265.712L280.435 236.459L294.98 279.132H306.026L327.532 215.39L315.42 215.354ZM222.966 227.285V214.661H219.29C206.859 214.661 200.199 218.359 194.427 228.636V215.247H182.12V278.99H194.427V254.097C194.427 239.055 200.909 227.32 219.29 227.32L222.966 227.285ZM168.037 247.163C168.037 227.96 153.492 214.287 134.792 214.287C116.376 214.287 101.458 227.676 101.458 247.163C101.659 255.869 105.254 264.151 111.475 270.237C117.697 276.323 126.049 279.731 134.748 279.731C143.446 279.731 151.799 276.323 158.02 270.237C164.241 264.151 167.836 255.869 168.037 247.163ZM134.792 268.801C131.978 268.812 129.19 268.256 126.596 267.165C124.001 266.074 121.653 264.471 119.69 262.451C117.728 260.432 116.192 258.037 115.174 255.411C114.156 252.784 113.677 249.979 113.765 247.163C113.765 234.717 122.769 225.631 134.792 225.631C146.513 225.631 155.624 234.272 155.624 247.163C155.624 259.485 146.62 268.801 134.792 268.801ZM147.223 205.362C148.745 205.306 150.217 204.803 151.455 203.916C152.693 203.029 153.644 201.797 154.188 200.373C154.732 198.949 154.845 197.397 154.515 195.909C154.184 194.421 153.423 193.063 152.327 192.005C151.232 190.946 149.849 190.234 148.352 189.957C146.855 189.679 145.309 189.849 143.907 190.444C142.506 191.04 141.31 192.035 140.469 193.306C139.628 194.577 139.18 196.067 139.179 197.592C139.19 198.633 139.408 199.661 139.82 200.618C140.232 201.574 140.829 202.438 141.578 203.161C142.326 203.884 143.211 204.451 144.18 204.829C145.149 205.206 146.184 205.388 147.223 205.362ZM121.739 205.362C123.261 205.306 124.732 204.803 125.97 203.916C127.209 203.029 128.159 201.797 128.703 200.373C129.247 198.949 129.361 197.397 129.03 195.909C128.7 194.421 127.939 193.063 126.843 192.005C125.747 190.946 124.365 190.234 122.867 189.957C121.37 189.679 119.825 189.849 118.423 190.444C117.021 191.04 115.826 192.035 114.985 193.306C114.144 194.577 113.695 196.067 113.694 197.592C113.706 198.633 113.924 199.661 114.335 200.618C114.747 201.574 115.345 202.438 116.093 203.161C116.842 203.884 117.726 204.451 118.696 204.829C119.665 205.206 120.699 205.388 121.739 205.362ZM82.1005 215.354L67.0586 260.071L51.3595 215.443H42.9416L27.2248 260.071L12.1118 215.443H0L21.5063 279.078H32.5526L47.2749 236.406L61.8196 279.078H72.8658L94.4432 215.283L82.1005 215.354Z" fill="white"/>
</g>
<defs>
<clipPath id="clip0_10_100">
<rect width="479" height="355" fill="white"/>
</clipPath>
</defs>
</svg>
