<svg width="630" height="157" viewBox="0 0 630 157" fill="none" xmlns="http://www.w3.org/2000/svg">
<g clip-path="url(#clip0_10_122)">
<path d="M0 0.179932H77.9357V19.3808H22.6895V44.545H71.1262V63.5403H22.6895V109.37H0V0.179932Z" fill="white"/>
<path d="M113.602 109.37H90.9121V0.0256958H113.602V109.37Z" fill="white"/>
<path d="M134.98 0.0256958H157.798V89.7069H212.402V109.37H134.98V0.0256958Z" fill="white"/>
<path d="M227.743 0.0256958H250.586V89.7069H305.164V109.37H227.743V0.0256958Z" fill="white"/>
<path d="M320.788 109.371V0H336.591L372.565 96.4671H372.847L408.102 0H423.725V109.371H413.447V11.8495H413.139L377.293 109.371H367.58L331.606 11.8495H331.297V109.371H320.788Z" fill="white"/>
<path d="M447.751 109.371V0H520.496V8.79078H458.081V48.2978H514.432V57.0372H458.081V100.477H521.986V109.293L447.751 109.371Z" fill="white"/>
<path d="M540.539 109.371V0H577.901C580.959 0 583.939 4.71114e-06 586.869 0.205637C589.778 0.356203 592.672 0.716995 595.528 1.2852C598.366 1.85852 601.139 2.71977 603.802 3.8556C606.53 5.0355 609.115 6.51852 611.511 8.27669C615.116 10.8561 618.166 14.134 620.479 17.9157C622.803 21.6801 624.666 25.7103 626.029 29.9194C627.383 34.1055 628.346 38.4078 628.907 42.7714C629.488 46.6447 629.823 50.551 629.909 54.4668C629.906 58.1789 629.674 61.8872 629.216 65.5709C628.769 69.2904 628.03 72.9689 627.006 76.5722C626.012 80.1233 624.669 83.5673 622.997 86.8538C621.327 90.1525 619.199 93.1986 616.676 95.9016C614.307 98.6142 611.512 100.923 608.402 102.739C605.437 104.45 602.28 105.804 598.997 106.774C595.64 107.747 592.199 108.401 588.719 108.728C585.133 109.09 581.531 109.27 577.927 109.268L540.539 109.371ZM550.817 100.554H575.588C579.978 100.566 584.365 100.291 588.719 99.7315C593.102 99.0746 597.337 97.6567 601.233 95.5418C604.773 93.8186 607.848 91.2712 610.201 88.1133C612.529 84.9667 614.398 81.5048 615.751 77.8317C617.137 74.0685 618.102 70.1634 618.629 66.1878C619.235 62.3089 619.57 58.3923 619.631 54.4668C619.625 50.4277 619.367 46.393 618.86 42.3859C618.373 38.3861 617.407 34.4595 615.982 30.6906C614.585 26.9909 612.636 23.5244 610.201 20.409C607.646 17.2023 604.441 14.574 600.796 12.6978C597.192 10.8733 593.279 9.7399 589.258 9.35625C584.772 8.84112 580.259 8.58367 575.742 8.58514H550.972L550.817 100.554Z" fill="white"/>
<path d="M117.687 135.82H121.953V152.63H132.231V156.306H117.713L117.687 135.82Z" fill="white"/>
<path d="M132.308 156.435H117.559V135.691H122.081V152.502H132.36L132.308 156.435ZM117.79 156.203H132.077V152.733H121.799V135.923H117.79V156.203Z" fill="white"/>
<path d="M156.591 135.82H161.447L168.694 156.383H164.043L162.706 152.168H155.152L153.764 156.383H149.396L156.591 135.82ZM156.308 148.672H161.576L159.006 140.601L156.308 148.672Z" fill="white"/>
<path d="M168.848 156.435H163.965L162.655 152.322H155.255L153.867 156.537H149.139V156.383L156.488 135.82H161.499L168.848 156.435ZM164.12 156.203H168.539L161.37 135.923H156.668L149.396 156.203H153.636L155.023 151.988H162.732L164.12 156.203ZM161.73 148.672H156.154V148.518L158.929 140.138V140.472L161.73 148.672ZM156.462 148.441H161.422L158.852 140.729L156.462 148.441Z" fill="white"/>
<path d="M202.253 138.005C202.898 138.911 203.231 140.003 203.203 141.115C203.248 142.206 202.912 143.278 202.253 144.148C201.806 144.628 201.275 145.02 200.685 145.305C201.651 145.625 202.483 146.258 203.049 147.104C203.6 148.008 203.876 149.053 203.846 150.111C203.87 151.055 203.668 151.991 203.257 152.841C202.846 153.69 202.237 154.429 201.482 154.995C200.803 155.515 200.01 155.868 199.169 156.023C198.215 156.227 197.241 156.322 196.265 156.306H187.041V135.743H196.933C197.937 135.659 198.946 135.821 199.873 136.215C200.8 136.609 201.617 137.223 202.253 138.005ZM191.126 139.367V143.891H196.111C196.864 143.917 197.609 143.739 198.27 143.377C198.559 143.181 198.788 142.91 198.933 142.593C199.078 142.275 199.133 141.924 199.092 141.578C199.14 141.19 199.061 140.797 198.866 140.459C198.671 140.12 198.372 139.854 198.013 139.701C197.253 139.434 196.454 139.295 195.649 139.29L191.126 139.367ZM191.126 147.284V152.759H196.111C196.814 152.788 197.515 152.665 198.167 152.399C198.627 152.158 199.003 151.784 199.246 151.325C199.489 150.866 199.588 150.345 199.529 149.829C199.566 149.373 199.46 148.917 199.225 148.525C198.99 148.133 198.638 147.825 198.218 147.644C197.567 147.378 196.866 147.255 196.163 147.284H191.126Z" fill="white"/>
<path d="M196.265 156.435H186.912V135.691H196.933C197.946 135.611 198.962 135.772 199.9 136.161C200.838 136.549 201.671 137.155 202.33 137.928C202.988 138.858 203.33 139.975 203.306 141.115C203.358 142.227 203.012 143.32 202.33 144.199C201.94 144.651 201.469 145.026 200.942 145.305C201.839 145.649 202.61 146.259 203.152 147.053C203.705 147.975 203.982 149.036 203.948 150.111C203.966 151.291 203.645 152.45 203.023 153.453C202.613 154.148 202.059 154.748 201.399 155.214C200.739 155.679 199.988 155.999 199.195 156.152C198.23 156.342 197.249 156.437 196.265 156.435ZM187.143 156.203H196.265C197.232 156.206 198.196 156.111 199.143 155.92C199.963 155.762 200.737 155.42 201.405 154.918C201.981 154.483 202.469 153.942 202.844 153.324C203.448 152.363 203.761 151.247 203.743 150.111C203.765 149.078 203.488 148.061 202.946 147.181C202.391 146.352 201.578 145.729 200.634 145.408C201.212 145.14 201.729 144.755 202.15 144.277C202.8 143.433 203.128 142.385 203.075 141.321C203.099 140.229 202.775 139.157 202.15 138.262C201.523 137.525 200.73 136.947 199.837 136.577C198.943 136.206 197.975 136.052 197.011 136.128H187.22L187.143 156.203ZM196.111 152.862H190.972V147.181H196.111C196.831 147.152 197.549 147.275 198.218 147.541C198.653 147.736 199.017 148.06 199.261 148.469C199.505 148.879 199.616 149.353 199.58 149.829C199.635 150.35 199.529 150.876 199.276 151.335C199.023 151.795 198.636 152.166 198.167 152.399C197.525 152.705 196.822 152.863 196.111 152.862ZM191.229 152.63H196.111C196.796 152.666 197.48 152.552 198.116 152.296C198.561 152.044 198.922 151.665 199.151 151.207C199.379 150.749 199.466 150.233 199.4 149.726C199.443 149.289 199.346 148.85 199.125 148.472C198.904 148.094 198.568 147.795 198.167 147.618C197.525 147.384 196.846 147.271 196.163 147.284H191.229V152.63ZM196.111 143.994H190.972V139.29H195.649C196.516 139.257 197.383 139.361 198.218 139.598C198.602 139.765 198.923 140.049 199.135 140.409C199.347 140.769 199.44 141.187 199.4 141.603C199.436 141.972 199.371 142.343 199.212 142.678C199.054 143.013 198.808 143.299 198.501 143.505C197.768 143.895 196.938 144.064 196.111 143.994ZM191.229 143.788H196.111C196.847 143.814 197.577 143.636 198.218 143.274C198.487 143.087 198.701 142.83 198.836 142.532C198.972 142.233 199.025 141.904 198.989 141.578C199.035 141.21 198.959 140.838 198.773 140.518C198.588 140.198 198.303 139.947 197.961 139.804C197.187 139.568 196.381 139.455 195.572 139.47H191.229V143.788Z" fill="white"/>
<path d="M238.972 154.481C238.078 155.319 237.021 155.964 235.868 156.375C234.714 156.786 233.487 156.955 232.265 156.872C231.04 156.953 229.81 156.783 228.652 156.371C227.495 155.96 226.433 155.317 225.533 154.481C224.447 153.371 223.609 152.043 223.073 150.586C222.537 149.128 222.316 147.574 222.424 146.024C222.306 144.474 222.523 142.917 223.059 141.458C223.595 139.999 224.439 138.672 225.533 137.568C226.433 136.732 227.495 136.088 228.652 135.677C229.81 135.266 231.04 135.096 232.265 135.177C233.487 135.094 234.714 135.263 235.868 135.674C237.021 136.085 238.078 136.73 238.972 137.568C240.06 138.676 240.9 140.003 241.436 141.461C241.972 142.919 242.192 144.475 242.081 146.024C242.182 147.573 241.958 149.126 241.423 150.582C240.887 152.039 240.052 153.367 238.972 154.481ZM236.402 151.371C237.378 149.763 237.893 147.918 237.893 146.037C237.893 144.156 237.378 142.312 236.402 140.704C235.922 140.089 235.307 139.592 234.606 139.251C233.905 138.909 233.135 138.731 232.355 138.731C231.575 138.731 230.805 138.909 230.104 139.251C229.403 139.592 228.789 140.089 228.308 140.704C227.194 142.244 226.657 144.128 226.792 146.024C226.662 147.929 227.198 149.819 228.308 151.371C228.788 151.983 229.406 152.472 230.112 152.799C230.818 153.125 231.591 153.279 232.368 153.247C233.124 153.262 233.873 153.1 234.556 152.775C235.238 152.449 235.836 151.968 236.3 151.371H236.402Z" fill="white"/>
<path d="M232.265 157C231.023 157.082 229.778 156.908 228.607 156.487C227.435 156.067 226.363 155.411 225.456 154.558C224.366 153.434 223.524 152.093 222.984 150.623C222.444 149.154 222.218 147.587 222.321 146.024C222.209 144.461 222.43 142.891 222.971 141.42C223.511 139.949 224.358 138.609 225.456 137.491C227.376 135.927 229.776 135.073 232.252 135.073C234.728 135.073 237.129 135.927 239.049 137.491C240.146 138.609 240.994 139.949 241.534 141.42C242.075 142.891 242.296 144.461 242.184 146.024C242.286 147.587 242.06 149.154 241.52 150.623C240.98 152.093 240.138 153.434 239.049 154.558C238.146 155.409 237.078 156.064 235.911 156.484C234.744 156.904 233.503 157.08 232.265 157ZM232.265 135.306C231.055 135.221 229.84 135.385 228.696 135.787C227.551 136.189 226.501 136.821 225.61 137.645C224.534 138.745 223.702 140.06 223.171 141.504C222.639 142.949 222.42 144.489 222.526 146.024C222.43 147.559 222.654 149.097 223.185 150.539C223.716 151.982 224.542 153.298 225.61 154.404C227.486 155.934 229.832 156.77 232.252 156.77C234.673 156.77 237.019 155.934 238.895 154.404C239.96 153.297 240.782 151.98 241.309 150.537C241.835 149.094 242.054 147.557 241.953 146.024C242.067 144.494 241.854 142.958 241.326 141.517C240.799 140.076 239.97 138.765 238.895 137.671C238.013 136.839 236.969 136.2 235.828 135.793C234.687 135.386 233.474 135.22 232.265 135.306ZM232.265 153.299C231.469 153.322 230.679 153.16 229.957 152.825C229.234 152.491 228.6 151.993 228.102 151.371C227.097 149.745 226.564 147.872 226.564 145.96C226.564 144.049 227.097 142.175 228.102 140.549C228.6 139.928 229.234 139.43 229.957 139.095C230.679 138.761 231.469 138.598 232.265 138.622C233.054 138.592 233.839 138.752 234.554 139.087C235.269 139.423 235.894 139.924 236.377 140.549C237.368 142.18 237.893 144.052 237.893 145.96C237.893 147.869 237.368 149.74 236.377 151.371C235.893 152 235.269 152.508 234.556 152.856C233.843 153.204 233.059 153.382 232.265 153.376V153.299ZM232.265 138.853C231.505 138.826 230.749 138.977 230.058 139.293C229.366 139.61 228.758 140.084 228.282 140.678C227.208 142.217 226.683 144.073 226.792 145.947C226.704 147.779 227.228 149.588 228.282 151.088C228.753 151.689 229.359 152.171 230.051 152.492C230.744 152.814 231.502 152.967 232.265 152.939C233.021 152.967 233.772 152.814 234.456 152.492C235.14 152.17 235.737 151.688 236.197 151.088C237.17 149.507 237.685 147.688 237.685 145.832C237.685 143.975 237.17 142.156 236.197 140.575C235.716 140.012 235.11 139.57 234.427 139.284C233.744 138.999 233.003 138.877 232.265 138.93V138.853Z" fill="white"/>
<path d="M274.15 136.334C274.891 136.653 275.543 137.147 276.051 137.773C276.486 138.287 276.833 138.869 277.079 139.496C277.349 140.183 277.48 140.917 277.464 141.655C277.451 142.66 277.196 143.648 276.719 144.534C276.208 145.487 275.339 146.199 274.304 146.513C275.136 146.81 275.842 147.381 276.308 148.132C276.758 149.141 276.961 150.242 276.899 151.345V152.733C276.842 153.366 276.842 154.002 276.899 154.635C276.948 154.872 277.043 155.096 277.18 155.295C277.317 155.493 277.492 155.662 277.696 155.792V156.306H272.968C272.968 155.843 272.736 155.483 272.685 155.201C272.586 154.623 272.526 154.039 272.505 153.453V151.551C272.587 150.642 272.351 149.734 271.837 148.98C271.474 148.706 271.06 148.505 270.619 148.391C270.178 148.276 269.719 148.249 269.267 148.312H265.285V156.357H261.096V135.794H270.912C272.014 135.784 273.11 135.967 274.15 136.334ZM265.285 139.29V144.791H269.884C270.594 144.833 271.305 144.719 271.966 144.456C272.372 144.239 272.704 143.905 272.919 143.497C273.134 143.09 273.223 142.627 273.173 142.169C273.249 141.672 273.178 141.163 272.968 140.706C272.758 140.249 272.418 139.864 271.991 139.598C271.369 139.326 270.691 139.203 270.013 139.239L265.285 139.29Z" fill="white"/>
<path d="M277.876 156.435H272.993C272.865 155.998 272.762 155.612 272.711 155.329C272.587 154.746 272.527 154.152 272.531 153.556V151.654C272.627 150.748 272.399 149.837 271.888 149.083C271.204 148.591 270.362 148.371 269.524 148.466H265.439V156.512H261.045V135.691H270.963C272.075 135.667 273.182 135.85 274.227 136.231C274.992 136.558 275.669 137.06 276.205 137.696C276.63 138.227 276.976 138.815 277.233 139.444C277.501 140.15 277.632 140.9 277.619 141.655C277.616 142.678 277.36 143.685 276.873 144.585C276.39 145.486 275.595 146.18 274.638 146.539C275.397 146.842 276.037 147.383 276.462 148.081C276.912 149.108 277.114 150.226 277.053 151.345V152.733C277.009 153.358 277.009 153.985 277.053 154.61C277.098 154.83 277.187 155.04 277.315 155.226C277.444 155.411 277.608 155.569 277.798 155.689L277.876 156.435ZM273.122 156.203H277.67V155.869C277.464 155.73 277.287 155.552 277.151 155.345C277.014 155.138 276.92 154.905 276.873 154.661C276.816 154.02 276.816 153.374 276.873 152.733V151.345C276.936 150.259 276.733 149.174 276.282 148.184C275.826 147.457 275.138 146.905 274.329 146.616C275.344 146.303 276.199 145.613 276.719 144.688C277.176 143.814 277.422 142.846 277.439 141.86C277.452 141.139 277.321 140.422 277.053 139.753C276.816 139.135 276.478 138.562 276.051 138.056C275.543 137.446 274.901 136.963 274.175 136.642C273.152 136.283 272.073 136.109 270.989 136.128H261.302V156.409H265.259V148.363H269.55C270.464 148.25 271.387 148.499 272.12 149.057C272.681 149.838 272.929 150.802 272.813 151.756V153.658C272.811 154.246 272.871 154.832 272.993 155.406C273.032 155.674 273.084 155.94 273.147 156.203H273.122ZM269.858 144.996H265.156V139.29H269.987C270.682 139.253 271.377 139.376 272.017 139.65C272.438 139.925 272.775 140.309 272.993 140.763C273.21 141.216 273.299 141.72 273.25 142.22C273.307 142.702 273.215 143.191 272.985 143.618C272.755 144.046 272.399 144.392 271.965 144.611C271.308 144.891 270.598 145.022 269.884 144.996H269.858ZM265.362 144.765H269.858C270.552 144.808 271.246 144.694 271.888 144.431C272.277 144.223 272.594 143.904 272.8 143.515C273.006 143.126 273.091 142.684 273.045 142.246C273.095 141.778 273.017 141.306 272.817 140.88C272.618 140.454 272.305 140.09 271.914 139.83C271.31 139.557 270.649 139.434 269.987 139.47H265.362V144.765Z" fill="white"/>
<path d="M303.083 135.82H307.94L315.186 156.383H310.535L309.199 152.168H301.644L300.257 156.383H295.863L303.083 135.82ZM302.8 148.672H308.068L305.499 140.601L302.8 148.672Z" fill="white"/>
<path d="M315.34 156.435H310.458L309.147 152.322H301.747L300.359 156.537H295.657V156.383L302.98 135.82H307.991L315.34 156.435ZM310.638 156.203H315.032L307.863 135.923H303.186L295.863 156.203H300.102L301.49 151.988H309.199L310.638 156.203ZM308.222 148.672H302.646V148.518L305.421 140.138V140.472L308.222 148.672ZM302.955 148.441H307.914L305.473 140.729L302.955 148.441Z" fill="white"/>
<path d="M346.252 135.82V139.444H340.111V156.306H335.82V139.444H329.653V135.82H346.252Z" fill="white"/>
<path d="M340.239 156.435H335.691V139.547H329.524V135.691H346.355V139.547H340.239V156.435ZM335.922 156.203H340.008V139.29H346.149V135.897H329.755V139.29H335.922V156.203Z" fill="white"/>
<path d="M379.708 154.481C378.808 155.317 377.747 155.96 376.589 156.371C375.431 156.783 374.202 156.953 372.976 156.872C371.754 156.955 370.528 156.786 369.374 156.375C368.22 155.964 367.163 155.319 366.269 154.481C365.184 153.371 364.345 152.043 363.809 150.586C363.274 149.128 363.052 147.574 363.16 146.024C363.042 144.474 363.259 142.917 363.795 141.458C364.332 139.999 365.176 138.672 366.269 137.568C367.163 136.73 368.22 136.085 369.374 135.674C370.528 135.263 371.754 135.094 372.976 135.177C374.202 135.096 375.431 135.266 376.589 135.677C377.747 136.088 378.808 136.732 379.708 137.568C380.793 138.677 381.63 140.005 382.161 141.464C382.693 142.922 382.908 144.477 382.792 146.024C382.898 147.571 382.679 149.123 382.147 150.58C381.616 152.037 380.785 153.366 379.708 154.481ZM377.01 151.371C378.002 149.769 378.528 147.922 378.528 146.037C378.528 144.153 378.002 142.306 377.01 140.704C376.539 140.087 375.926 139.593 375.224 139.262C374.522 138.931 373.751 138.773 372.976 138.802C372.198 138.78 371.425 138.94 370.72 139.27C370.015 139.601 369.397 140.092 368.916 140.704C367.814 142.25 367.278 144.129 367.4 146.024C367.283 147.927 367.817 149.813 368.916 151.371C369.399 151.98 370.017 152.467 370.722 152.793C371.428 153.119 372.2 153.274 372.976 153.247C373.75 153.281 374.52 153.128 375.222 152.801C375.924 152.475 376.537 151.984 377.01 151.371Z" fill="white"/>
<path d="M372.95 157C371.713 157.08 370.472 156.904 369.305 156.484C368.138 156.064 367.07 155.409 366.167 154.558C365.073 153.436 364.226 152.097 363.682 150.627C363.137 149.157 362.907 147.589 363.006 146.024C362.897 144.459 363.123 142.888 363.668 141.417C364.213 139.946 365.065 138.607 366.167 137.491C368.087 135.927 370.487 135.073 372.963 135.073C375.439 135.073 377.84 135.927 379.76 137.491C380.857 138.609 381.705 139.949 382.245 141.42C382.786 142.891 383.007 144.461 382.895 146.024C382.997 147.587 382.771 149.154 382.231 150.623C381.691 152.093 380.849 153.434 379.76 154.558C378.853 155.411 377.781 156.067 376.609 156.487C375.438 156.908 374.192 157.082 372.95 157ZM372.95 135.306C371.744 135.221 370.534 135.385 369.393 135.788C368.253 136.19 367.207 136.822 366.321 137.645C365.239 138.741 364.404 140.055 363.873 141.501C363.341 142.946 363.124 144.488 363.237 146.024C363.134 147.559 363.355 149.099 363.886 150.543C364.418 151.987 365.247 153.302 366.321 154.404C367.205 155.231 368.25 155.868 369.39 156.275C370.531 156.682 371.742 156.85 372.95 156.769C374.162 156.847 375.377 156.678 376.521 156.271C377.666 155.865 378.715 155.229 379.606 154.404C380.671 153.297 381.493 151.98 382.019 150.537C382.546 149.094 382.765 147.557 382.664 146.024C382.778 144.494 382.565 142.958 382.037 141.517C381.51 140.076 380.681 138.765 379.606 137.671C378.718 136.84 377.67 136.201 376.524 135.794C375.379 135.388 374.163 135.221 372.95 135.306ZM372.95 153.299C372.159 153.318 371.374 153.154 370.656 152.819C369.939 152.485 369.308 151.989 368.813 151.371C367.808 149.745 367.275 147.872 367.275 145.96C367.275 144.049 367.808 142.175 368.813 140.549C369.32 139.944 369.953 139.458 370.668 139.124C371.382 138.79 372.162 138.617 372.95 138.617C373.739 138.617 374.519 138.79 375.233 139.124C375.948 139.458 376.581 139.944 377.087 140.549C378.079 142.18 378.604 144.052 378.604 145.96C378.604 147.869 378.079 149.74 377.087 151.371C376.601 152.003 375.974 152.514 375.256 152.862C374.537 153.21 373.748 153.386 372.95 153.376V153.299ZM372.95 138.853C372.194 138.828 371.443 138.98 370.756 139.297C370.069 139.613 369.465 140.086 368.993 140.678C367.908 142.212 367.381 144.072 367.503 145.947C367.403 147.78 367.928 149.593 368.993 151.088C369.476 151.67 370.08 152.139 370.764 152.46C371.448 152.782 372.195 152.949 372.95 152.949C373.706 152.949 374.453 152.782 375.137 152.46C375.821 152.139 376.425 151.67 376.908 151.088C377.853 149.498 378.352 147.682 378.352 145.832C378.352 143.981 377.853 142.165 376.908 140.575C376.422 140.012 375.811 139.57 375.124 139.284C374.437 138.998 373.693 138.877 372.95 138.93V138.853Z" fill="white"/>
<path d="M405.636 156.306H401.37V135.743H405.636V156.306Z" fill="white"/>
<path d="M405.738 156.435H401.216V135.691H405.687L405.738 156.435ZM401.498 156.203H405.507V135.923H401.498V156.203Z" fill="white"/>
<path d="M438.424 136.334C439.176 136.646 439.838 137.14 440.351 137.773C440.786 138.287 441.133 138.869 441.379 139.496C441.649 140.183 441.78 140.917 441.764 141.655C441.751 142.66 441.495 143.648 441.019 144.534C440.507 145.487 439.639 146.199 438.603 146.513C439.431 146.819 440.135 147.388 440.608 148.132C441.057 149.141 441.26 150.242 441.199 151.345V152.733C441.141 153.366 441.141 154.003 441.199 154.635C441.247 154.872 441.343 155.096 441.48 155.295C441.616 155.493 441.792 155.662 441.995 155.792V156.306H437.267C437.139 155.843 437.036 155.483 436.985 155.201C436.873 154.625 436.812 154.04 436.805 153.453V151.551C436.887 150.642 436.651 149.734 436.137 148.98C435.436 148.458 434.564 148.219 433.696 148.312H429.481V156.357H425.293V135.794H435.083C436.22 135.767 437.353 135.95 438.424 136.334ZM429.481 139.29V144.791H434.081C434.783 144.836 435.485 144.722 436.137 144.456C436.55 144.245 436.889 143.914 437.11 143.505C437.33 143.096 437.421 142.63 437.37 142.169C437.446 141.672 437.374 141.163 437.164 140.706C436.954 140.249 436.615 139.864 436.188 139.598C435.565 139.326 434.888 139.203 434.209 139.239L429.481 139.29Z" fill="white"/>
<path d="M442.329 156.435H437.19C437.19 155.998 436.959 155.612 436.907 155.329C436.784 154.746 436.724 154.152 436.728 153.556V151.654C436.833 150.743 436.595 149.827 436.059 149.083C435.388 148.586 434.551 148.365 433.721 148.466H429.635V156.512H425.241V135.691H435.134C436.255 135.665 437.37 135.848 438.423 136.231C439.183 136.556 439.852 137.058 440.376 137.696C440.809 138.226 441.163 138.814 441.43 139.444C441.698 140.15 441.828 140.9 441.815 141.655C441.8 142.676 441.544 143.68 441.07 144.585C440.586 145.486 439.792 146.18 438.835 146.538C439.594 146.842 440.234 147.383 440.659 148.081C441.108 149.108 441.311 150.226 441.25 151.345V152.733C441.206 153.358 441.206 153.985 441.25 154.61C441.295 154.83 441.384 155.04 441.512 155.226C441.64 155.411 441.805 155.569 441.995 155.689L442.329 156.435ZM437.575 156.203H442.124V155.869C441.918 155.73 441.741 155.552 441.604 155.345C441.468 155.138 441.373 154.905 441.327 154.661C441.224 154.024 441.181 153.378 441.199 152.733V151.345C441.268 150.261 441.074 149.176 440.633 148.184C440.176 147.457 439.489 146.905 438.68 146.616C439.692 146.31 440.541 145.617 441.044 144.688C441.521 143.821 441.776 142.85 441.79 141.86C441.803 141.139 441.672 140.422 441.404 139.753C441.157 139.14 440.819 138.568 440.402 138.056C439.894 137.446 439.252 136.963 438.526 136.642C437.495 136.281 436.407 136.107 435.314 136.128H425.627V156.409H429.481V148.363H433.773C434.687 148.249 435.609 148.499 436.342 149.057C436.904 149.838 437.152 150.802 437.036 151.756V153.658C437.059 154.244 437.119 154.828 437.216 155.406C437.19 155.458 437.344 155.792 437.447 156.203H437.575ZM434.312 144.996H429.481V139.29H434.312C435.007 139.256 435.701 139.379 436.342 139.65C436.763 139.925 437.1 140.309 437.318 140.763C437.535 141.216 437.624 141.72 437.575 142.22C437.625 142.702 437.529 143.187 437.3 143.613C437.071 144.039 436.719 144.387 436.291 144.611C435.625 144.892 434.906 145.024 434.184 144.996H434.312ZM429.815 144.765H434.312C434.997 144.809 435.683 144.695 436.316 144.431C436.707 144.226 437.027 143.908 437.233 143.518C437.44 143.128 437.523 142.684 437.473 142.246C437.526 141.781 437.451 141.31 437.257 140.884C437.062 140.458 436.754 140.094 436.368 139.83C435.763 139.557 435.102 139.434 434.441 139.47H429.815V144.765Z" fill="white"/>
<path d="M476.685 139.444H465.841V143.788H475.734V147.361H465.79V152.63H477.122V156.306H461.704V135.743H476.736L476.685 139.444Z" fill="white"/>
<path d="M477.301 156.435H461.55V135.691H476.787V139.547H465.944V143.685H475.914V147.464H465.944V152.605H477.301V156.435ZM461.755 156.203H477.173V152.733H465.841V147.232H475.734V143.917H465.79V139.29H476.633V135.897H461.807L461.755 156.203Z" fill="white"/>
<path d="M499.271 149.983C499.333 150.742 499.6 151.471 500.042 152.091C500.521 152.555 501.096 152.909 501.727 153.127C502.357 153.344 503.028 153.421 503.691 153.35C504.561 153.388 505.43 153.274 506.261 153.016C506.793 152.887 507.264 152.579 507.596 152.144C507.928 151.708 508.101 151.173 508.085 150.625C508.092 150.31 508.015 149.998 507.861 149.723C507.708 149.447 507.483 149.217 507.211 149.057C506.312 148.602 505.351 148.282 504.359 148.106L502.124 147.618C500.554 147.357 499.042 146.826 497.653 146.05C496.962 145.541 496.41 144.868 496.047 144.091C495.683 143.315 495.52 142.459 495.571 141.603C495.551 140.738 495.722 139.879 496.073 139.088C496.424 138.297 496.946 137.593 497.601 137.028C499.293 135.7 501.418 135.05 503.563 135.203C505.559 135.155 507.517 135.759 509.139 136.925C509.908 137.506 510.53 138.261 510.955 139.127C511.379 139.993 511.593 140.947 511.58 141.912H507.468C507.454 141.371 507.291 140.844 506.996 140.391C506.701 139.937 506.287 139.574 505.798 139.341C504.994 138.972 504.114 138.796 503.229 138.827C502.282 138.771 501.341 139.004 500.531 139.496C500.208 139.682 499.941 139.952 499.76 140.278C499.579 140.604 499.49 140.974 499.503 141.346C499.49 141.689 499.579 142.027 499.757 142.319C499.935 142.612 500.195 142.845 500.505 142.991C501.372 143.391 502.288 143.677 503.229 143.84L506.826 144.688C508.097 144.94 509.303 145.447 510.372 146.179C510.979 146.689 511.459 147.333 511.775 148.06C512.092 148.786 512.236 149.577 512.197 150.368C512.213 151.257 512.027 152.137 511.653 152.943C511.279 153.749 510.727 154.46 510.038 155.021C508.287 156.372 506.104 157.039 503.897 156.897C501.628 157.023 499.383 156.38 497.524 155.072C496.753 154.465 496.14 153.681 495.738 152.785C495.335 151.89 495.154 150.911 495.211 149.931L499.271 149.983Z" fill="white"/>
<path d="M503.999 156.949C501.71 157.083 499.443 156.43 497.575 155.098C496.8 154.492 496.181 153.709 495.769 152.815C495.358 151.92 495.167 150.941 495.211 149.957H499.503C499.558 150.702 499.825 151.416 500.274 152.013C500.737 152.468 501.295 152.815 501.908 153.028C502.521 153.242 503.174 153.316 503.82 153.247C504.688 153.272 505.556 153.16 506.389 152.913C506.901 152.794 507.355 152.501 507.674 152.083C507.992 151.666 508.156 151.15 508.136 150.625C508.144 150.327 508.069 150.032 507.919 149.773C507.769 149.515 507.551 149.302 507.289 149.16C506.411 148.697 505.466 148.376 504.488 148.209L502.278 147.721C500.68 147.462 499.14 146.923 497.73 146.127C497.023 145.614 496.459 144.93 496.09 144.138C495.722 143.347 495.561 142.474 495.623 141.603C495.606 140.725 495.782 139.854 496.137 139.05C496.492 138.247 497.018 137.53 497.678 136.951C499.391 135.605 501.544 134.945 503.717 135.1C505.741 135.052 507.726 135.665 509.37 136.848C510.182 137.434 510.839 138.207 511.287 139.102C511.734 139.998 511.958 140.988 511.939 141.989H507.623C507.634 141.452 507.489 140.924 507.207 140.468C506.924 140.011 506.515 139.647 506.029 139.418C505.227 139.043 504.345 138.867 503.46 138.904C502.561 138.879 501.672 139.101 500.89 139.547C500.588 139.733 500.34 139.994 500.169 140.305C499.998 140.616 499.91 140.966 499.914 141.321C499.901 141.643 499.984 141.962 500.153 142.237C500.323 142.512 500.57 142.73 500.865 142.863C501.727 143.252 502.633 143.537 503.563 143.711L507.16 144.559C508.457 144.792 509.685 145.31 510.757 146.076C511.384 146.589 511.881 147.243 512.207 147.984C512.533 148.726 512.679 149.534 512.633 150.343C512.646 151.25 512.454 152.149 512.071 152.973C511.689 153.796 511.125 154.522 510.423 155.098C508.581 156.481 506.295 157.139 503.999 156.949ZM495.417 150.086C495.394 151.014 495.589 151.935 495.986 152.774C496.383 153.613 496.972 154.347 497.704 154.918C499.537 156.217 501.757 156.852 503.999 156.717C506.174 156.851 508.324 156.203 510.064 154.892C510.74 154.339 511.284 153.641 511.653 152.848C512.022 152.056 512.208 151.191 512.196 150.317C512.239 149.542 512.098 148.768 511.786 148.058C511.473 147.348 510.998 146.722 510.398 146.23C509.348 145.498 508.158 144.99 506.903 144.739L503.306 143.891C502.356 143.731 501.431 143.446 500.556 143.043C500.233 142.882 499.962 142.632 499.775 142.322C499.589 142.013 499.494 141.656 499.503 141.295C499.493 140.906 499.585 140.521 499.77 140.178C499.955 139.836 500.226 139.547 500.556 139.341C501.392 138.841 502.358 138.599 503.331 138.647C504.218 138.622 505.099 138.807 505.901 139.187C506.392 139.422 506.811 139.784 507.114 140.236C507.417 140.688 507.593 141.214 507.623 141.758H511.503C511.505 140.832 511.292 139.919 510.882 139.089C510.472 138.26 509.875 137.537 509.139 136.977C507.532 135.822 505.591 135.226 503.614 135.28C501.501 135.122 499.404 135.754 497.73 137.054C497.087 137.611 496.574 138.303 496.227 139.08C495.881 139.857 495.71 140.701 495.725 141.552C495.662 142.389 495.815 143.229 496.171 143.99C496.526 144.751 497.072 145.408 497.755 145.896C499.137 146.668 500.64 147.199 502.201 147.464L504.436 147.952C505.442 148.12 506.414 148.45 507.314 148.929C507.605 149.094 507.846 149.333 508.013 149.622C508.18 149.911 508.267 150.24 508.265 150.574C508.285 151.154 508.108 151.724 507.762 152.191C507.417 152.658 506.924 152.994 506.364 153.144C505.531 153.395 504.663 153.508 503.794 153.479C503.117 153.547 502.433 153.467 501.79 153.245C501.147 153.023 500.559 152.664 500.068 152.193C499.626 151.58 499.351 150.863 499.271 150.111L495.417 150.086Z" fill="white"/>
</g>
<defs>
<clipPath id="clip0_10_122">
<rect width="629.858" height="157" fill="white"/>
</clipPath>
</defs>
</svg>
